999
FreeCAD v0.20 29410 (Git)
  0
SECTION
  2
HEADER
  9
$ACADVER
  1
AC1014
  9
$ACADMAINTVER
 70
     9
  9
$DWGCODEPAGE
  3
ANSI_1252
  9
$TEXTSTYLE
  7
STANDARD
  9
$DIMSTYLE
  2
STANDARD
  9
$DIMTXSTY
  7
STANDARD
  9
$CMLSTYLE
  2
STANDARD
  9
$LUNITS
 70
2
  9
$INSUNITS
 70
4
  9
$PEXTMAX
 10
50
 20
50
 30
50
  9
$PEXTMIN
 10
0
 20
0
 30
0
  9
$HANDSEED
  5
FFFF
  0
ENDSEC
  0
SECTION
  2
CLASSES
  0
CLASS
  1
ACDBDICTIONARYWDFLT
  2
AcDbDictionaryWithDefault
  3
ObjectDBX Classes
 90
        0
280
     0
281
     0
  0
CLASS
  1
XRECORD
  2
AcDbXrecord
  3
ObjectDBX Classes
 90
        0
280
     0
281
     0
  0
CLASS
  1
LWPOLYLINE
  2
AcDbPolyline
  3
ObjectDBX Classes
 90
        0
280
     0
281
     1
  0
ENDSEC
  0
SECTION
  2
TABLES
  0
TABLE
  2
VPORT
  5
20
330
0
100
AcDbSymbolTable
 70
     1
  0
VPORT
  5
21
330
20
100
AcDbSymbolTableRecord
100
AcDbViewportTableRecord
  2
*ACTIVE
 70
     0
  0
ENDTAB
  0
TABLE
  2
LTYPE
  5
22
330
0
100
AcDbSymbolTable
 70
     1
  0
LTYPE
  5
23
330
21
100
AcDbSymbolTableRecord
100
AcDbLinetypeTableRecord
  2
BYBLOCK
 70
     0
  3

 72
    65
 73
     0
 40
0.0
  0
LTYPE
  5
24
330
21
100
AcDbSymbolTableRecord
100
AcDbLinetypeTableRecord
  2
BYLAYER
 70
     0
  3

 72
    65
 73
     0
 40
0.0
  0
LTYPE
  5
25
330
21
100
AcDbSymbolTableRecord
100
AcDbLinetypeTableRecord
  2
CONTINUOUS
 70
     0
  3
Solid line
 72
    65
 73
     0
 40
0.0
  0
ENDTAB
  0
TABLE
  2
LAYER
  5
AC5
330
0
100
AcDbSymbolTable
 70
17
  0
LAYER
  5
AC6
330
AC5
100
AcDbSymbolTableRecord
100
AcDbLayerTableRecord
  2
0
 70
   0
 62
   7
  6
CONTINUOUS
  0
LAYER
  5
AC7
330
AC5
100
AcDbSymbolTableRecord
100
AcDbLayerTableRecord
  2
ProjItem
 70
    0
 62
    7
  6
CONTINUOUS
  0
LAYER
  5
AC8
330
AC5
100
AcDbSymbolTableRecord
100
AcDbLayerTableRecord
  2
Dimension
 70
    0
 62
    7
  6
CONTINUOUS
  0
LAYER
  5
AC9
330
AC5
100
AcDbSymbolTableRecord
100
AcDbLayerTableRecord
  2
Dimension002
 70
    0
 62
    7
  6
CONTINUOUS
  0
LAYER
  5
ACA
330
AC5
100
AcDbSymbolTableRecord
100
AcDbLayerTableRecord
  2
Dimension003
 70
    0
 62
    7
  6
CONTINUOUS
  0
LAYER
  5
ACB
330
AC5
100
AcDbSymbolTableRecord
100
AcDbLayerTableRecord
  2
Dimension004
 70
    0
 62
    7
  6
CONTINUOUS
  0
LAYER
  5
ACC
330
AC5
100
AcDbSymbolTableRecord
100
AcDbLayerTableRecord
  2
Dimension005
 70
    0
 62
    7
  6
CONTINUOUS
  0
LAYER
  5
ACD
330
AC5
100
AcDbSymbolTableRecord
100
AcDbLayerTableRecord
  2
Annotation
 70
    0
 62
    7
  6
CONTINUOUS
  0
LAYER
  5
ACE
330
AC5
100
AcDbSymbolTableRecord
100
AcDbLayerTableRecord
  2
Dimension012
 70
    0
 62
    7
  6
CONTINUOUS
  0
LAYER
  5
ACF
330
AC5
100
AcDbSymbolTableRecord
100
AcDbLayerTableRecord
  2
Dimension013
 70
    0
 62
    7
  6
CONTINUOUS
  0
LAYER
  5
AD0
330
AC5
100
AcDbSymbolTableRecord
100
AcDbLayerTableRecord
  2
Dimension014
 70
    0
 62
    7
  6
CONTINUOUS
  0
LAYER
  5
AD1
330
AC5
100
AcDbSymbolTableRecord
100
AcDbLayerTableRecord
  2
Dimension015
 70
    0
 62
    7
  6
CONTINUOUS
  0
LAYER
  5
AD2
330
AC5
100
AcDbSymbolTableRecord
100
AcDbLayerTableRecord
  2
View
 70
    0
 62
    7
  6
CONTINUOUS
  0
LAYER
  5
AD3
330
AC5
100
AcDbSymbolTableRecord
100
AcDbLayerTableRecord
  2
Dimension017
 70
    0
 62
    7
  6
CONTINUOUS
  0
LAYER
  5
AD4
330
AC5
100
AcDbSymbolTableRecord
100
AcDbLayerTableRecord
  2
SectionView
 70
    0
 62
    7
  6
CONTINUOUS
  0
LAYER
  5
AD5
330
AC5
100
AcDbSymbolTableRecord
100
AcDbLayerTableRecord
  2
Dimension018
 70
    0
 62
    7
  6
CONTINUOUS
  0
LAYER
  5
AD6
330
AC5
100
AcDbSymbolTableRecord
100
AcDbLayerTableRecord
  2
Annotation001
 70
    0
 62
    7
  6
CONTINUOUS
  0
ENDTAB
  0
TABLE
  2
STYLE
  5
70
330
0
100
AcDbSymbolTable
 70
     2
  0
STYLE
  5
71
330
70
100
AcDbSymbolTableRecord
100
AcDbTextStyleTableRecord
  2
STANDARD
 70
     0
 40
0.0
 41
1.0
 50
0.0
 71
     0
 42
2.5
  3
arial.ttf
  4

  0
STYLE
  5
72
330
70
100
AcDbSymbolTableRecord
100
AcDbTextStyleTableRecord
  2
ANNOTATIVE
 70
     0
 40
0.0
 41
1.0
 50
0.0
 71
     0
 42
2.5
  3
arial.ttf
  4

  0
ENDTAB
  0
TABLE
  2
VIEW
  5
73
330
0
100
AcDbSymbolTable
 70
     0
  0
ENDTAB
  0
TABLE
  2
UCS
  5
74
330
0
100
AcDbSymbolTable
 70
     0
  0
ENDTAB
  0
TABLE
  2
APPID
  5
75
330
0
100
AcDbSymbolTable
 70
     2
  0
APPID
  5
76
330
75
100
AcDbSymbolTableRecord
100
AcDbRegAppTableRecord
  2
ACAD
 70
     0
  0
APPID
  5
77
330
75
100
AcDbSymbolTableRecord
100
AcDbRegAppTableRecord
  2
ACADANNOTATIVE
 70
     0
  0
ENDTAB
  0
TABLE
  2
DIMSTYLE
  5
78
330
0
100
AcDbSymbolTable
 70
     2
  0
DIMSTYLE
105
79
330
78
100
AcDbSymbolTableRecord
100
AcDbDimStyleTableRecord
  2
STANDARD
 70
     0
  3

  4

  5

  6

  7

 40
0.0
 41
2.5
 42
0.625
 43
3.75
 44
1.25
 45
0.0
 46
0.0
 47
0.0
 48
0.0
140
2.5
141
2.5
142
0.0
143
0.03937007874016
144
1.0
145
0.0
146
1.0
147
0.625
 71
     0
 72
     0
 73
     0
 74
     0
 75
     0
 76
     0
 77
     1
 78
     8
170
     0
171
     3
172
     1
173
     0
174
     0
175
     0
176
     0
177
     0
178
     0
270
     2
271
     2
272
     2
273
     2
274
     3
340
71
275
     0
280
     0
281
     0
282
     0
283
     0
284
     8
285
     0
286
     0
287
     3
288
     0
  0
ENDTAB
  0
TABLE
  2
BLOCK_RECORD
  5
A01
330
0
100
AcDbSymbolTable
  70
5
  0
BLOCK_RECORD
  5
A02
330
A01
100
AcDbSymbolTableRecord
100
AcDbBlockTableRecord
  2
*MODEL_SPACE
  0
BLOCK_RECORD
  5
A03
330
A01
100
AcDbSymbolTableRecord
100
AcDbBlockTableRecord
  2
*PAPER_SPACE
  0
BLOCK_RECORD
  5
A1E
330
A01
100
AcDbSymbolTableRecord
100
AcDbBlockTableRecord
  2
*Dimension
  0
BLOCK_RECORD
  5
A28
330
A01
100
AcDbSymbolTableRecord
100
AcDbBlockTableRecord
  2
*Dimension002
  0
BLOCK_RECORD
  5
A32
330
A01
100
AcDbSymbolTableRecord
100
AcDbBlockTableRecord
  2
*Dimension003
  0
BLOCK_RECORD
  5
A3A
330
A01
100
AcDbSymbolTableRecord
100
AcDbBlockTableRecord
  2
*Dimension004
  0
BLOCK_RECORD
  5
A44
330
A01
100
AcDbSymbolTableRecord
100
AcDbBlockTableRecord
  2
*Dimension005
  0
BLOCK_RECORD
  5
A4F
330
A01
100
AcDbSymbolTableRecord
100
AcDbBlockTableRecord
  2
*Dimension012
  0
BLOCK_RECORD
  5
A57
330
A01
100
AcDbSymbolTableRecord
100
AcDbBlockTableRecord
  2
*Dimension013
  0
BLOCK_RECORD
  5
A61
330
A01
100
AcDbSymbolTableRecord
100
AcDbBlockTableRecord
  2
*Dimension014
  0
BLOCK_RECORD
  5
A6B
330
A01
100
AcDbSymbolTableRecord
100
AcDbBlockTableRecord
  2
*Dimension015
  0
BLOCK_RECORD
  5
A95
330
A01
100
AcDbSymbolTableRecord
100
AcDbBlockTableRecord
  2
*Dimension017
  0
BLOCK_RECORD
  5
ABB
330
A01
100
AcDbSymbolTableRecord
100
AcDbBlockTableRecord
  2
*Dimension018
  0
ENDTAB
  0
ENDSEC
  0
SECTION
  2
BLOCKS
  0
BLOCK
  5
A04
330
A02
100
AcDbEntity
  8
0
100
AcDbBlockBegin
  2
*MODEL_SPACE
 70
   0
 10
0
 20
0
 30
0
  3
*MODEL_SPACE
  1
 
  0
ENDBLK
  5
A05
330
A02
100
AcDbEntity
  8
0
100
AcDbBlockEnd
  0
BLOCK
  5
A06
330
A03
100
AcDbEntity
 67
1
  8
0
100
AcDbBlockBegin
  2
*PAPER_SPACE
 70
   0
 10
0
 20
0
 30
0
  3
*PAPER_SPACE
  1
 
  0
ENDBLK
  5
A07
330
A03
100
AcDbEntity
 67
    1
  8
0
100
AcDbBlockEnd
  0
BLOCK
  5
A1F
330
A1E
100
AcDbEntity
  8
Dimension
100
AcDbBlockBegin
  2
*Dimension
 70
   1
 10
0
 20
0
 30
0
  3
*Dimension
  1
 
  0
LINE
  5
A20
330
A1E
100
AcDbEntity
  8
Dimension
100
AcDbLine
 10
37.4353
 20
153.43
 30
0
 11
19.8814
 21
153.43
 31
0
  0
LINE
  5
A21
330
A1E
100
AcDbEntity
  8
Dimension
100
AcDbLine
 10
37.4353
 20
138.43
 30
0
 11
19.8814
 21
138.43
 31
0
  0
LINE
  5
A22
330
A1E
100
AcDbEntity
  8
Dimension
100
AcDbLine
 10
19.8814
 20
138.43
 30
0
 11
19.8814
 21
153.43
 31
0
  0
TEXT
  5
A23
330
A1E
100
AcDbEntity
  8
Dimension
100
AcDbText
 10
24.8814
 20
147.09
 30
0
 40
3.5
  1
10
  7
STANDARD
 72
1
 11
19.8814
 21
147.09
 31
0
100
AcDbText
  0
SOLID
  5
A24
330
A1E
100
AcDbEntity
  8
0
 62
     0
100
AcDbTrace
 10
19.4648
 20
133.43
 30
0
 11
20.2981
 21
133.43
 31
0
 12
19.8814
 22
138.43
 32
0
 13
19.8814
 23
138.43
 33
0
  0
SOLID
  5
A25
330
A1E
100
AcDbEntity
  8
0
 62
     0
100
AcDbTrace
 10
19.4648
 20
158.43
 30
0
 11
20.2981
 21
158.43
 31
0
 12
19.8814
 22
153.43
 32
0
 13
19.8814
 23
153.43
 33
0
  0
ENDBLK
  5
A26
330
A1E
100
AcDbEntity
  8
Dimension
100
AcDbBlockEnd
  0
BLOCK
  5
A29
330
A28
100
AcDbEntity
  8
Dimension002
100
AcDbBlockBegin
  2
*Dimension002
 70
   1
 10
0
 20
0
 30
0
  3
*Dimension002
  1
 
  0
LINE
  5
A2A
330
A28
100
AcDbEntity
  8
Dimension002
100
AcDbLine
 10
74.9353
 20
115.93
 30
0
 11
74.9353
 21
116.952
 31
0
  0
LINE
  5
A2B
330
A28
100
AcDbEntity
  8
Dimension002
100
AcDbLine
 10
97.4353
 20
115.93
 30
0
 11
97.4353
 21
116.952
 31
0
  0
LINE
  5
A2C
330
A28
100
AcDbEntity
  8
Dimension002
100
AcDbLine
 10
97.4353
 20
116.952
 30
0
 11
74.9353
 21
116.952
 31
0
  0
TEXT
  5
A2D
330
A28
100
AcDbEntity
  8
Dimension002
100
AcDbText
 10
86.2045
 20
111.952
 30
0
 40
3.5
  1
15
  7
STANDARD
 72
1
 11
86.2045
 21
116.952
 31
0
100
AcDbText
  0
SOLID
  5
A2E
330
A28
100
AcDbEntity
  8
0
 62
     0
100
AcDbTrace
 10
102.435
 20
117.369
 30
0
 11
102.435
 21
116.535
 31
0
 12
97.4353
 22
116.952
 32
0
 13
97.4353
 23
116.952
 33
0
  0
SOLID
  5
A2F
330
A28
100
AcDbEntity
  8
0
 62
     0
100
AcDbTrace
 10
69.9353
 20
117.369
 30
0
 11
69.9353
 21
116.535
 31
0
 12
74.9353
 22
116.952
 32
0
 13
74.9353
 23
116.952
 33
0
  0
ENDBLK
  5
A30
330
A28
100
AcDbEntity
  8
Dimension002
100
AcDbBlockEnd
  0
BLOCK
  5
A33
330
A32
100
AcDbEntity
  8
Dimension003
100
AcDbBlockBegin
  2
*Dimension003
 70
   1
 10
0
 20
0
 30
0
  3
*Dimension003
  1
 
  0
LINE
  5
A34
330
A32
100
AcDbEntity
  8
Dimension003
100
AcDbLine
 10
47.4177
 20
149.862
 30
0
 11
57.4528
 21
141.997
 31
0
  0
TEXT
  5
A35
330
A32
100
AcDbEntity
  8
Dimension003
100
AcDbText
 10
28.9125
 20
171.384
 30
0
 40
3.5
  1
⌀8,5
  7
STANDARD
 72
1
 11
28.9125
 21
171.384
 31
0
100
AcDbText
  0
SOLID
  5
A36
330
A32
100
AcDbEntity
  8
0
 62
     0
100
AcDbTrace
 10
51.6101
 20
147.106
 30
0
 11
51.096
 21
146.45
 31
0
 12
47.4177
 22
149.862
 32
0
 13
47.4177
 23
149.862
 33
0
  0
SOLID
  5
A37
330
A32
100
AcDbEntity
  8
0
 62
     0
100
AcDbTrace
 10
53.7745
 20
145.409
 30
0
 11
53.2605
 21
144.753
 31
0
 12
57.4528
 22
141.997
 32
0
 13
57.4528
 23
141.997
 33
0
  0
ENDBLK
  5
A38
330
A32
100
AcDbEntity
  8
Dimension003
100
AcDbBlockEnd
  0
BLOCK
  5
A3B
330
A3A
100
AcDbEntity
  8
Dimension004
100
AcDbBlockBegin
  2
*Dimension004
 70
   1
 10
0
 20
0
 30
0
  3
*Dimension004
  1
 
  0
LINE
  5
A3C
330
A3A
100
AcDbEntity
  8
Dimension004
100
AcDbLine
 10
134.935
 20
138.43
 30
0
 11
134.935
 21
87.1007
 31
0
  0
LINE
  5
A3D
330
A3A
100
AcDbEntity
  8
Dimension004
100
AcDbLine
 10
37.4353
 20
138.43
 30
0
 11
37.4353
 21
87.1007
 31
0
  0
LINE
  5
A3E
330
A3A
100
AcDbEntity
  8
Dimension004
100
AcDbLine
 10
37.4353
 20
87.1007
 30
0
 11
134.935
 21
87.1007
 31
0
  0
TEXT
  5
A3F
330
A3A
100
AcDbEntity
  8
Dimension004
100
AcDbText
 10
87.8791
 20
92.1007
 30
0
 40
3.5
  1
65
  7
STANDARD
 72
1
 11
87.8791
 21
87.1007
 31
0
100
AcDbText
  0
SOLID
  5
A40
330
A3A
100
AcDbEntity
  8
0
 62
     0
100
AcDbTrace
 10
32.4353
 20
86.684
 30
0
 11
32.4353
 21
87.5173
 31
0
 12
37.4353
 22
87.1007
 32
0
 13
37.4353
 23
87.1007
 33
0
  0
SOLID
  5
A41
330
A3A
100
AcDbEntity
  8
0
 62
     0
100
AcDbTrace
 10
139.935
 20
86.684
 30
0
 11
139.935
 21
87.5173
 31
0
 12
134.935
 22
87.1007
 32
0
 13
134.935
 23
87.1007
 33
0
  0
ENDBLK
  5
A42
330
A3A
100
AcDbEntity
  8
Dimension004
100
AcDbBlockEnd
  0
BLOCK
  5
A45
330
A44
100
AcDbEntity
  8
Dimension005
100
AcDbBlockBegin
  2
*Dimension005
 70
   1
 10
0
 20
0
 30
0
  3
*Dimension005
  1
 
  0
LINE
  5
A46
330
A44
100
AcDbEntity
  8
Dimension005
100
AcDbLine
 10
97.4353
 20
115.93
 30
0
 11
155.354
 21
115.93
 31
0
  0
LINE
  5
A47
330
A44
100
AcDbEntity
  8
Dimension005
100
AcDbLine
 10
97.4353
 20
175.93
 30
0
 11
155.354
 21
175.93
 31
0
  0
LINE
  5
A48
330
A44
100
AcDbEntity
  8
Dimension005
100
AcDbLine
 10
155.354
 20
175.93
 30
0
 11
155.354
 21
115.93
 31
0
  0
TEXT
  5
A49
330
A44
100
AcDbEntity
  8
Dimension005
100
AcDbText
 10
150.354
 20
149.769
 30
0
 40
3.5
  1
40
  7
STANDARD
 72
1
 11
155.354
 21
149.769
 31
0
100
AcDbText
  0
SOLID
  5
A4A
330
A44
100
AcDbEntity
  8
0
 62
     0
100
AcDbTrace
 10
155.771
 20
180.93
 30
0
 11
154.937
 21
180.93
 31
0
 12
155.354
 22
175.93
 32
0
 13
155.354
 23
175.93
 33
0
  0
SOLID
  5
A4B
330
A44
100
AcDbEntity
  8
0
 62
     0
100
AcDbTrace
 10
155.771
 20
110.93
 30
0
 11
154.937
 21
110.93
 31
0
 12
155.354
 22
115.93
 32
0
 13
155.354
 23
115.93
 33
0
  0
ENDBLK
  5
A4C
330
A44
100
AcDbEntity
  8
Dimension005
100
AcDbBlockEnd
  0
BLOCK
  5
A50
330
A4F
100
AcDbEntity
  8
Dimension012
100
AcDbBlockBegin
  2
*Dimension012
 70
   1
 10
0
 20
0
 30
0
  3
*Dimension012
  1
 
  0
LINE
  5
A51
330
A4F
100
AcDbEntity
  8
Dimension012
100
AcDbLine
 10
102.674
 20
139.164
 30
0
 11
84.697
 21
152.695
 31
0
  0
TEXT
  5
A52
330
A4F
100
AcDbEntity
  8
Dimension012
100
AcDbText
 10
126.91
 20
127.869
 30
0
 40
3.5
  1
⌀15
  7
STANDARD
 72
1
 11
126.91
 21
127.869
 31
0
100
AcDbText
  0
SOLID
  5
A53
330
A4F
100
AcDbEntity
  8
0
 62
     0
100
AcDbTrace
 10
98.4282
 20
141.838
 30
0
 11
98.9293
 21
142.504
 31
0
 12
102.674
 22
139.164
 32
0
 13
102.674
 23
139.164
 33
0
  0
SOLID
  5
A54
330
A4F
100
AcDbEntity
  8
0
 62
     0
100
AcDbTrace
 10
88.4412
 20
149.355
 30
0
 11
88.9424
 21
150.021
 31
0
 12
84.697
 22
152.695
 32
0
 13
84.697
 23
152.695
 33
0
  0
ENDBLK
  5
A55
330
A4F
100
AcDbEntity
  8
Dimension012
100
AcDbBlockEnd
  0
BLOCK
  5
A58
330
A57
100
AcDbEntity
  8
Dimension013
100
AcDbBlockBegin
  2
*Dimension013
 70
   1
 10
0
 20
0
 30
0
  3
*Dimension013
  1
 
  0
LINE
  5
A59
330
A57
100
AcDbEntity
  8
Dimension013
100
AcDbLine
 10
119.935
 20
154.305
 30
0
 11
119.935
 21
97.6225
 31
0
  0
LINE
  5
A5A
330
A57
100
AcDbEntity
  8
Dimension013
100
AcDbLine
 10
52.4353
 20
154.305
 30
0
 11
52.4353
 21
97.6225
 31
0
  0
LINE
  5
A5B
330
A57
100
AcDbEntity
  8
Dimension013
100
AcDbLine
 10
52.4353
 20
97.6225
 30
0
 11
119.935
 21
97.6225
 31
0
  0
TEXT
  5
A5C
330
A57
100
AcDbEntity
  8
Dimension013
100
AcDbText
 10
86.5394
 20
102.622
 30
0
 40
3.5
  1
45
  7
STANDARD
 72
1
 11
86.5394
 21
97.6225
 31
0
100
AcDbText
  0
SOLID
  5
A5D
330
A57
100
AcDbEntity
  8
0
 62
     0
100
AcDbTrace
 10
47.4353
 20
97.2058
 30
0
 11
47.4353
 21
98.0391
 31
0
 12
52.4353
 22
97.6225
 32
0
 13
52.4353
 23
97.6225
 33
0
  0
SOLID
  5
A5E
330
A57
100
AcDbEntity
  8
0
 62
     0
100
AcDbTrace
 10
124.935
 20
97.2058
 30
0
 11
124.935
 21
98.0391
 31
0
 12
119.935
 22
97.6225
 32
0
 13
119.935
 23
97.6225
 33
0
  0
ENDBLK
  5
A5F
330
A57
100
AcDbEntity
  8
Dimension013
100
AcDbBlockEnd
  0
BLOCK
  5
A62
330
A61
100
AcDbEntity
  8
Dimension014
100
AcDbBlockBegin
  2
*Dimension014
 70
   1
 10
0
 20
0
 30
0
  3
*Dimension014
  1
 
  0
LINE
  5
A63
330
A61
100
AcDbEntity
  8
Dimension014
100
AcDbLine
 10
52.4353
 20
138.43
 30
0
 11
52.4353
 21
183.029
 31
0
  0
LINE
  5
A64
330
A61
100
AcDbEntity
  8
Dimension014
100
AcDbLine
 10
37.4353
 20
138.43
 30
0
 11
37.4353
 21
183.029
 31
0
  0
LINE
  5
A65
330
A61
100
AcDbEntity
  8
Dimension014
100
AcDbLine
 10
37.4353
 20
183.029
 30
0
 11
52.4353
 21
183.029
 31
0
  0
TEXT
  5
A66
330
A61
100
AcDbEntity
  8
Dimension014
100
AcDbText
 10
47.7683
 20
188.029
 30
0
 40
3.5
  1
10
  7
STANDARD
 72
1
 11
47.7683
 21
183.029
 31
0
100
AcDbText
  0
SOLID
  5
A67
330
A61
100
AcDbEntity
  8
0
 62
     0
100
AcDbTrace
 10
32.4353
 20
183.446
 30
0
 11
32.4353
 21
182.612
 31
0
 12
37.4353
 22
183.029
 32
0
 13
37.4353
 23
183.029
 33
0
  0
SOLID
  5
A68
330
A61
100
AcDbEntity
  8
0
 62
     0
100
AcDbTrace
 10
57.4353
 20
183.446
 30
0
 11
57.4353
 21
182.612
 31
0
 12
52.4353
 22
183.029
 32
0
 13
52.4353
 23
183.029
 33
0
  0
ENDBLK
  5
A69
330
A61
100
AcDbEntity
  8
Dimension014
100
AcDbBlockEnd
  0
BLOCK
  5
A6C
330
A6B
100
AcDbEntity
  8
Dimension015
100
AcDbBlockBegin
  2
*Dimension015
 70
   1
 10
0
 20
0
 30
0
  3
*Dimension015
  1
 
  0
LINE
  5
A6D
330
A6B
100
AcDbEntity
  8
Dimension015
100
AcDbLine
 10
74.9353
 20
151.08
 30
0
 11
74.9353
 21
182.93
 31
0
  0
LINE
  5
A6E
330
A6B
100
AcDbEntity
  8
Dimension015
100
AcDbLine
 10
52.4353
 20
151.08
 30
0
 11
52.4353
 21
182.93
 31
0
  0
LINE
  5
A6F
330
A6B
100
AcDbEntity
  8
Dimension015
100
AcDbLine
 10
52.4353
 20
182.93
 30
0
 11
74.9353
 21
182.93
 31
0
  0
TEXT
  5
A70
330
A6B
100
AcDbEntity
  8
Dimension015
100
AcDbText
 10
65.8101
 20
187.93
 30
0
 40
3.5
  1
15
  7
STANDARD
 72
1
 11
65.8101
 21
182.93
 31
0
100
AcDbText
  0
SOLID
  5
A71
330
A6B
100
AcDbEntity
  8
0
 62
     0
100
AcDbTrace
 10
47.4353
 20
183.347
 30
0
 11
47.4353
 21
182.514
 31
0
 12
52.4353
 22
182.93
 32
0
 13
52.4353
 23
182.93
 33
0
  0
SOLID
  5
A72
330
A6B
100
AcDbEntity
  8
0
 62
     0
100
AcDbTrace
 10
79.9353
 20
183.347
 30
0
 11
79.9353
 21
182.514
 31
0
 12
74.9353
 22
182.93
 32
0
 13
74.9353
 23
182.93
 33
0
  0
ENDBLK
  5
A73
330
A6B
100
AcDbEntity
  8
Dimension015
100
AcDbBlockEnd
  0
BLOCK
  5
A96
330
A95
100
AcDbEntity
  8
Dimension017
100
AcDbBlockBegin
  2
*Dimension017
 70
   1
 10
0
 20
0
 30
0
  3
*Dimension017
  1
 
  0
LINE
  5
A97
330
A95
100
AcDbEntity
  8
Dimension017
100
AcDbLine
 10
93.6853
 20
151.08
 30
0
 11
93.6853
 21
183.189
 31
0
  0
LINE
  5
A98
330
A95
100
AcDbEntity
  8
Dimension017
100
AcDbLine
 10
74.9353
 20
151.08
 30
0
 11
74.9353
 21
183.189
 31
0
  0
LINE
  5
A99
330
A95
100
AcDbEntity
  8
Dimension017
100
AcDbLine
 10
74.9353
 20
183.189
 30
0
 11
93.6853
 21
183.189
 31
0
  0
TEXT
  5
A9A
330
A95
100
AcDbEntity
  8
Dimension017
100
AcDbText
 10
84.3103
 20
188.189
 30
0
 40
3.5
  1
12,5
  7
STANDARD
 72
1
 11
84.3103
 21
183.189
 31
0
100
AcDbText
  0
SOLID
  5
A9B
330
A95
100
AcDbEntity
  8
0
 62
     0
100
AcDbTrace
 10
69.9353
 20
183.606
 30
0
 11
69.9353
 21
182.772
 31
0
 12
74.9353
 22
183.189
 32
0
 13
74.9353
 23
183.189
 33
0
  0
SOLID
  5
A9C
330
A95
100
AcDbEntity
  8
0
 62
     0
100
AcDbTrace
 10
98.6853
 20
183.606
 30
0
 11
98.6853
 21
182.772
 31
0
 12
93.6853
 22
183.189
 32
0
 13
93.6853
 23
183.189
 33
0
  0
ENDBLK
  5
A9D
330
A95
100
AcDbEntity
  8
Dimension017
100
AcDbBlockEnd
  0
BLOCK
  5
ABC
330
ABB
100
AcDbEntity
  8
Dimension018
100
AcDbBlockBegin
  2
*Dimension018
 70
   1
 10
0
 20
0
 30
0
  3
*Dimension018
  1
 
  0
LINE
  5
ABD
330
ABB
100
AcDbEntity
  8
Dimension018
100
AcDbLine
 10
37.7883
 20
74.5873
 30
0
 11
19.7261
 21
74.5873
 31
0
  0
LINE
  5
ABE
330
ABB
100
AcDbEntity
  8
Dimension018
100
AcDbLine
 10
37.7883
 20
67.0873
 30
0
 11
19.7261
 21
67.0873
 31
0
  0
LINE
  5
ABF
330
ABB
100
AcDbEntity
  8
Dimension018
100
AcDbLine
 10
19.7261
 20
67.0873
 30
0
 11
19.7261
 21
74.5873
 31
0
  0
TEXT
  5
AC0
330
ABB
100
AcDbEntity
  8
Dimension018
100
AcDbText
 10
24.7261
 20
71.9976
 30
0
 40
3.5
  1
5
  7
STANDARD
 72
1
 11
19.7261
 21
71.9976
 31
0
100
AcDbText
  0
SOLID
  5
AC1
330
ABB
100
AcDbEntity
  8
0
 62
     0
100
AcDbTrace
 10
19.3094
 20
62.0873
 30
0
 11
20.1427
 21
62.0873
 31
0
 12
19.7261
 22
67.0873
 32
0
 13
19.7261
 23
67.0873
 33
0
  0
SOLID
  5
AC2
330
ABB
100
AcDbEntity
  8
0
 62
     0
100
AcDbTrace
 10
19.3094
 20
79.5873
 30
0
 11
20.1427
 21
79.5873
 31
0
 12
19.7261
 22
74.5873
 32
0
 13
19.7261
 23
74.5873
 33
0
  0
ENDBLK
  5
AC3
330
ABB
100
AcDbEntity
  8
Dimension018
100
AcDbBlockEnd
  0
ENDSEC
  0
SECTION
  2
ENTITIES
  0
LINE
  5
A08
330
A02
100
AcDbEntity
  8
ProjItem
100
AcDbLine
 10
37.4353
 20
138.43
 30
0
 11
37.4353
 21
153.43
 31
0
  0
LINE
  5
A09
330
A02
100
AcDbEntity
  8
ProjItem
100
AcDbLine
 10
37.4353
 20
153.43
 30
0
 11
74.9353
 21
175.93
 31
0
  0
LINE
  5
A0A
330
A02
100
AcDbEntity
  8
ProjItem
100
AcDbLine
 10
74.9353
 20
175.93
 30
0
 11
97.4353
 21
175.93
 31
0
  0
LINE
  5
A0B
330
A02
100
AcDbEntity
  8
ProjItem
100
AcDbLine
 10
97.4353
 20
175.93
 30
0
 11
134.935
 21
153.43
 31
0
  0
LINE
  5
A0C
330
A02
100
AcDbEntity
  8
ProjItem
100
AcDbLine
 10
134.935
 20
153.43
 30
0
 11
134.935
 21
138.43
 31
0
  0
LINE
  5
A0D
330
A02
100
AcDbEntity
  8
ProjItem
100
AcDbLine
 10
134.935
 20
138.43
 30
0
 11
97.4353
 21
115.93
 31
0
  0
LINE
  5
A0E
330
A02
100
AcDbEntity
  8
ProjItem
100
AcDbLine
 10
97.4353
 20
115.93
 30
0
 11
74.9353
 21
115.93
 31
0
  0
LINE
  5
A0F
330
A02
100
AcDbEntity
  8
ProjItem
100
AcDbLine
 10
74.9353
 20
115.93
 30
0
 11
37.4353
 21
138.43
 31
0
  0
CIRCLE
  5
A10
330
A02
100
AcDbEntity
  8
ProjItem
100
AcDbCircle
 10
93.6853
 20
145.93
 40
11.25
  0
CIRCLE
  5
A11
330
A02
100
AcDbEntity
  8
ProjItem
100
AcDbCircle
 10
119.935
 20
145.93
 40
6.375
  0
CIRCLE
  5
A12
330
A02
100
AcDbEntity
  8
ProjItem
100
AcDbCircle
 10
52.4353
 20
145.93
 40
6.375
  0
CIRCLE
  5
A13
330
A02
100
AcDbEntity
  8
ProjItem
100
AcDbCircle
 10
74.9353
 20
145.93
 40
3.15
  0
LINE
  5
A14
330
A02
100
AcDbEntity
  8
ProjItem
100
AcDbLine
 10
80.0853
 20
145.93
 30
0
 11
69.7853
 21
145.93
 31
0
  0
LINE
  5
A15
330
A02
100
AcDbEntity
  8
ProjItem
100
AcDbLine
 10
74.9353
 20
151.08
 30
0
 11
74.9353
 21
140.78
 31
0
  0
LINE
  5
A16
330
A02
100
AcDbEntity
  8
ProjItem
100
AcDbLine
 10
128.31
 20
145.93
 30
0
 11
111.56
 21
145.93
 31
0
  0
LINE
  5
A17
330
A02
100
AcDbEntity
  8
ProjItem
100
AcDbLine
 10
119.935
 20
154.305
 30
0
 11
119.935
 21
137.555
 31
0
  0
LINE
  5
A18
330
A02
100
AcDbEntity
  8
ProjItem
100
AcDbLine
 10
60.8103
 20
145.93
 30
0
 11
44.0603
 21
145.93
 31
0
  0
LINE
  5
A19
330
A02
100
AcDbEntity
  8
ProjItem
100
AcDbLine
 10
52.4353
 20
154.305
 30
0
 11
52.4353
 21
137.555
 31
0
  0
LINE
  5
A1A
330
A02
100
AcDbEntity
  8
ProjItem
100
AcDbLine
 10
109.935
 20
145.93
 30
0
 11
83.4353
 21
145.93
 31
0
  0
ARC
  5
A1B
330
A02
100
AcDbEntity
  8
ProjItem
100
AcDbCircle
 10
74.9353
 20
145.93
 30
0
 40
3.70755
100
AcDbArc
 50
-165
 51
105
  0
LINE
  5
A1C
330
A02
100
AcDbEntity
  8
ProjItem
100
AcDbLine
 10
93.6853
 20
159.18
 30
0
 11
93.6853
 21
132.68
 31
0
  0
DIMENSION
  5
A1D
330
A02
100
AcDbEntity
  8
Dimension
100
AcDbDimension
  2
*Dimension
 10
19.8814
 20
147.09
 30
0
 11
24.8814
 21
147.09
 31
0
 70
32
  1
10
  3
STANDARD
100
AcDbAlignedDimension
 13
37.4353
 23
138.43
 33
0
 14
37.4353
 24
153.43
 34
0
 50
90
100
AcDbRotatedDimension
  0
DIMENSION
  5
A27
330
A02
100
AcDbEntity
  8
Dimension002
100
AcDbDimension
  2
*Dimension002
 10
86.2045
 20
116.952
 30
0
 11
86.2045
 21
111.952
 31
0
 70
32
  1
15
  3
STANDARD
100
AcDbAlignedDimension
 13
97.4353
 23
115.93
 33
0
 14
74.9353
 24
115.93
 34
0
100
AcDbRotatedDimension
  0
DIMENSION
  5
A31
330
A02
100
AcDbEntity
  8
Dimension003
100
AcDbDimension
  2
*Dimension003
 10
47.4177
 20
149.862
 30
0
 11
28.9125
 21
171.384
 31
0
 70
3
  1
⌀8,5
  3
STANDARD
100
AcDbDiametricDimension
 15
57.4528
 25
141.997
 35
0
 40
0
  0
DIMENSION
  5
A39
330
A02
100
AcDbEntity
  8
Dimension004
100
AcDbDimension
  2
*Dimension004
 10
87.8791
 20
87.1007
 30
0
 11
87.8791
 21
92.1007
 31
0
 70
32
  1
65
  3
STANDARD
100
AcDbAlignedDimension
 13
37.4353
 23
138.43
 33
0
 14
134.935
 24
138.43
 34
0
100
AcDbRotatedDimension
  0
DIMENSION
  5
A43
330
A02
100
AcDbEntity
  8
Dimension005
100
AcDbDimension
  2
*Dimension005
 10
155.354
 20
149.769
 30
0
 11
150.354
 21
149.769
 31
0
 70
32
  1
40
  3
STANDARD
100
AcDbAlignedDimension
 13
97.4353
 23
175.93
 33
0
 14
97.4353
 24
115.93
 34
0
 50
90
100
AcDbRotatedDimension
  0
TEXT
  5
A4D
330
A02
100
AcDbEntity
  8
Annotation
100
AcDbText
 10
75.5955
 20
133.965
 30
0
 40
5
  1
M5
  7
STANDARD
 72
1
 11
75.5955
 21
133.965
 31
0
100
AcDbText
  0
DIMENSION
  5
A4E
330
A02
100
AcDbEntity
  8
Dimension012
100
AcDbDimension
  2
*Dimension012
 10
102.674
 20
139.164
 30
0
 11
126.91
 21
127.869
 31
0
 70
3
  1
⌀15
  3
STANDARD
100
AcDbDiametricDimension
 15
84.697
 25
152.695
 35
0
 40
0
  0
DIMENSION
  5
A56
330
A02
100
AcDbEntity
  8
Dimension013
100
AcDbDimension
  2
*Dimension013
 10
86.5394
 20
97.6225
 30
0
 11
86.5394
 21
102.622
 31
0
 70
32
  1
45
  3
STANDARD
100
AcDbAlignedDimension
 13
52.4353
 23
154.305
 33
0
 14
119.935
 24
154.305
 34
0
100
AcDbRotatedDimension
  0
DIMENSION
  5
A60
330
A02
100
AcDbEntity
  8
Dimension014
100
AcDbDimension
  2
*Dimension014
 10
47.7683
 20
183.029
 30
0
 11
47.7683
 21
188.029
 31
0
 70
32
  1
10
  3
STANDARD
100
AcDbAlignedDimension
 13
37.4353
 23
138.43
 33
0
 14
52.4353
 24
138.43
 34
0
100
AcDbRotatedDimension
  0
DIMENSION
  5
A6A
330
A02
100
AcDbEntity
  8
Dimension015
100
AcDbDimension
  2
*Dimension015
 10
65.8101
 20
182.93
 30
0
 11
65.8101
 21
187.93
 31
0
 70
32
  1
15
  3
STANDARD
100
AcDbAlignedDimension
 13
52.4353
 23
151.08
 33
0
 14
74.9353
 24
151.08
 34
0
100
AcDbRotatedDimension
  0
LINE
  5
A74
330
A02
100
AcDbEntity
  8
View
100
AcDbLine
 10
180.26
 20
160.566
 30
0
 11
180.26
 21
166.69
 31
0
  0
LINE
  5
A75
330
A02
100
AcDbEntity
  8
View
100
AcDbLine
 10
180.26
 20
166.69
 30
0
 11
190.866
 21
172.813
 31
0
  0
LINE
  5
A76
330
A02
100
AcDbEntity
  8
View
100
AcDbLine
 10
190.866
 20
172.813
 30
0
 11
233.293
 21
166.69
 31
0
  0
LINE
  5
A77
330
A02
100
AcDbEntity
  8
View
100
AcDbLine
 10
233.293
 20
166.69
 30
0
 11
249.203
 21
157.504
 31
0
  0
LINE
  5
A78
330
A02
100
AcDbEntity
  8
View
100
AcDbLine
 10
259.809
 20
126.885
 30
0
 11
259.809
 21
133.009
 31
0
  0
LINE
  5
A79
330
A02
100
AcDbEntity
  8
View
100
AcDbLine
 10
249.203
 20
157.504
 30
0
 11
259.809
 21
133.009
 31
0
  0
LINE
  5
A7A
330
A02
100
AcDbEntity
  8
View
100
AcDbLine
 10
249.203
 20
120.762
 30
0
 11
249.203
 21
126.885
 31
0
  0
LINE
  5
A7B
330
A02
100
AcDbEntity
  8
View
100
AcDbLine
 10
259.809
 20
126.885
 30
0
 11
249.203
 21
120.762
 31
0
  0
LINE
  5
A7C
330
A02
100
AcDbEntity
  8
View
100
AcDbLine
 10
259.809
 20
133.009
 30
0
 11
249.203
 21
126.885
 31
0
  0
LINE
  5
A7D
330
A02
100
AcDbEntity
  8
View
100
AcDbLine
 10
206.776
 20
126.885
 30
0
 11
206.776
 21
133.009
 31
0
  0
LINE
  5
A7E
330
A02
100
AcDbEntity
  8
View
100
AcDbLine
 10
249.203
 20
120.762
 30
0
 11
206.776
 21
126.885
 31
0
  0
LINE
  5
A7F
330
A02
100
AcDbEntity
  8
View
100
AcDbLine
 10
249.203
 20
126.885
 30
0
 11
206.776
 21
133.009
 31
0
  0
LINE
  5
A80
330
A02
100
AcDbEntity
  8
View
100
AcDbLine
 10
190.866
 20
136.071
 30
0
 11
190.866
 21
142.195
 31
0
  0
LINE
  5
A81
330
A02
100
AcDbEntity
  8
View
100
AcDbLine
 10
206.776
 20
126.885
 30
0
 11
190.866
 21
136.071
 31
0
  0
LINE
  5
A82
330
A02
100
AcDbEntity
  8
View
100
AcDbLine
 10
206.776
 20
133.009
 30
0
 11
190.866
 21
142.195
 31
0
  0
LINE
  5
A83
330
A02
100
AcDbEntity
  8
View
100
AcDbLine
 10
190.866
 20
136.071
 30
0
 11
180.26
 21
160.566
 31
0
  0
LINE
  5
A84
330
A02
100
AcDbEntity
  8
View
100
AcDbLine
 10
190.866
 20
142.195
 30
0
 11
180.26
 21
166.69
 31
0
  0
ELLIPSE
  5
A85
330
A02
100
AcDbEntity
  8
View
100
AcDbEllipse
 10
225.338
 20
140.664
 30
0
 11
11.25
 21
6.88864e-16
 31
0
 40
0.57735
 41
0.490883
 42
2.65071
  0
ELLIPSE
  5
A86
330
A02
100
AcDbEntity
  8
View
100
AcDbEllipse
 10
225.338
 20
146.788
 30
0
 11
11.25
 21
6.88864e-16
 31
0
 40
0.57735
 41
5.49779
 42
0
  0
ELLIPSE
  5
A87
330
A02
100
AcDbEntity
  8
View
100
AcDbEllipse
 10
225.338
 20
146.788
 30
0
 11
11.25
 21
6.88864e-16
 31
0
 40
0.57735
 41
0
 42
3.14159
  0
ELLIPSE
  5
A88
330
A02
100
AcDbEntity
  8
View
100
AcDbEllipse
 10
225.338
 20
146.788
 30
0
 11
11.25
 21
6.88864e-16
 31
0
 40
0.57735
 41
3.14159
 42
5.49779
  0
ELLIPSE
  5
A89
330
A02
100
AcDbEntity
  8
View
100
AcDbEllipse
 10
243.899
 20
129.947
 30
0
 11
6.375
 21
3.90356e-16
 31
0
 40
0.57735
 41
0.982505
 42
2.15909
  0
ELLIPSE
  5
A8A
330
A02
100
AcDbEntity
  8
View
100
AcDbEllipse
 10
243.899
 20
136.071
 30
0
 11
6.375
 21
3.90356e-16
 31
0
 40
0.57735
 41
5.49779
 42
0
  0
ELLIPSE
  5
A8B
330
A02
100
AcDbEntity
  8
View
100
AcDbEllipse
 10
243.899
 20
136.071
 30
0
 11
6.375
 21
3.90356e-16
 31
0
 40
0.57735
 41
0
 42
3.14159
  0
ELLIPSE
  5
A8C
330
A02
100
AcDbEntity
  8
View
100
AcDbEllipse
 10
243.899
 20
136.071
 30
0
 11
6.375
 21
3.90356e-16
 31
0
 40
0.57735
 41
3.14159
 42
5.49779
  0
ELLIPSE
  5
A8D
330
A02
100
AcDbEntity
  8
View
100
AcDbEllipse
 10
196.17
 20
157.504
 30
0
 11
6.375
 21
3.90356e-16
 31
0
 40
0.57735
 41
0.982505
 42
2.15909
  0
ELLIPSE
  5
A8E
330
A02
100
AcDbEntity
  8
View
100
AcDbEllipse
 10
196.17
 20
163.628
 30
0
 11
6.375
 21
3.90356e-16
 31
0
 40
0.57735
 41
5.49779
 42
0
  0
ELLIPSE
  5
A8F
330
A02
100
AcDbEntity
  8
View
100
AcDbEllipse
 10
196.17
 20
163.628
 30
0
 11
6.375
 21
3.90356e-16
 31
0
 40
0.57735
 41
0
 42
3.14159
  0
ELLIPSE
  5
A90
330
A02
100
AcDbEntity
  8
View
100
AcDbEllipse
 10
196.17
 20
163.628
 30
0
 11
6.375
 21
3.90356e-16
 31
0
 40
0.57735
 41
3.14159
 42
5.49779
  0
ELLIPSE
  5
A91
330
A02
100
AcDbEntity
  8
View
100
AcDbEllipse
 10
212.08
 20
154.442
 30
0
 11
3.15
 21
1.92882e-16
 31
0
 40
0.57735
 41
5.49779
 42
0
  0
ELLIPSE
  5
A92
330
A02
100
AcDbEntity
  8
View
100
AcDbEllipse
 10
212.08
 20
154.442
 30
0
 11
3.15
 21
1.92882e-16
 31
0
 40
0.57735
 41
0
 42
3.14159
  0
ELLIPSE
  5
A93
330
A02
100
AcDbEntity
  8
View
100
AcDbEllipse
 10
212.08
 20
154.442
 30
0
 11
3.15
 21
1.92882e-16
 31
0
 40
0.57735
 41
3.14159
 42
5.49779
  0
DIMENSION
  5
A94
330
A02
100
AcDbEntity
  8
Dimension017
100
AcDbDimension
  2
*Dimension017
 10
84.3103
 20
183.189
 30
0
 11
84.3103
 21
188.189
 31
0
 70
32
  1
12,5
  3
STANDARD
100
AcDbAlignedDimension
 13
74.9353
 23
151.08
 33
0
 14
93.6853
 24
151.08
 34
0
100
AcDbRotatedDimension
  0
LINE
  5
A9E
330
A02
100
AcDbEntity
  8
SectionView
100
AcDbLine
 10
37.7883
 20
67.0873
 30
0
 11
37.7883
 21
74.5873
 31
0
  0
LINE
  5
A9F
330
A02
100
AcDbEntity
  8
SectionView
100
AcDbLine
 10
46.4133
 20
74.5873
 30
0
 11
37.7883
 21
74.5873
 31
0
  0
SPLINE
  5
AA0
330
A02
100
AcDbEntity
  8
SectionView
100
AcDbSpline
210
0
220
0
230
1
 70
8
 71
1
 72
17
 73
15
 74
0
 40
3.14159
 40
3.14159
 40
3.36599
 40
3.59039
 40
3.81479
 40
4.03919
 40
4.26359
 40
4.48799
 40
4.71239
 40
4.93679
 40
5.16119
 40
5.38559
 40
5.60999
 40
5.83439
 40
6.05879
 40
6.28319
 40
6.28319
 10
46.4133
 20
74.5873
 30
0
 10
46.5731
 20
74.5873
 30
0
 10
47.0446
 20
74.5873
 30
0
 10
47.8041
 20
74.5873
 30
0
 10
48.8135
 20
74.5873
 30
0
 10
50.0223
 20
74.5873
 30
0
 10
51.3697
 20
74.5873
 30
0
 10
52.7883
 20
74.5873
 30
0
 10
54.2068
 20
74.5873
 30
0
 10
55.5543
 20
74.5873
 30
0
 10
56.763
 20
74.5873
 30
0
 10
57.7725
 20
74.5873
 30
0
 10
58.532
 20
74.5873
 30
0
 10
59.0034
 20
74.5873
 30
0
 10
59.1633
 20
74.5873
 30
0
  0
LINE
  5
AA1
330
A02
100
AcDbEntity
  8
SectionView
100
AcDbLine
 10
72.1383
 20
74.5873
 30
0
 11
59.1633
 21
74.5873
 31
0
  0
SPLINE
  5
AA2
330
A02
100
AcDbEntity
  8
SectionView
100
AcDbSpline
210
0
220
0
230
1
 70
8
 71
1
 72
17
 73
15
 74
0
 40
3.14159
 40
3.14159
 40
3.36599
 40
3.59039
 40
3.81479
 40
4.03919
 40
4.26359
 40
4.48799
 40
4.71239
 40
4.93679
 40
5.16119
 40
5.38559
 40
5.60999
 40
5.83439
 40
6.05879
 40
6.28319
 40
6.28319
 10
72.1383
 20
74.5873
 30
0
 10
72.2173
 20
74.5873
 30
0
 10
72.4502
 20
74.5873
 30
0
 10
72.8255
 20
74.5873
 30
0
 10
73.3243
 20
74.5873
 30
0
 10
73.9215
 20
74.5873
 30
0
 10
74.5873
 20
74.5873
 30
0
 10
75.2883
 20
74.5873
 30
0
 10
75.9892
 20
74.5873
 30
0
 10
76.655
 20
74.5873
 30
0
 10
77.2523
 20
74.5873
 30
0
 10
77.751
 20
74.5873
 30
0
 10
78.1263
 20
74.5873
 30
0
 10
78.3593
 20
74.5873
 30
0
 10
78.4383
 20
74.5873
 30
0
  0
LINE
  5
AA3
330
A02
100
AcDbEntity
  8
SectionView
100
AcDbLine
 10
82.7883
 20
74.5873
 30
0
 11
78.4383
 21
74.5873
 31
0
  0
SPLINE
  5
AA4
330
A02
100
AcDbEntity
  8
SectionView
100
AcDbSpline
210
0
220
0
230
1
 70
8
 71
1
 72
17
 73
15
 74
0
 40
3.14159
 40
3.14159
 40
3.36599
 40
3.59039
 40
3.81479
 40
4.03919
 40
4.26359
 40
4.48799
 40
4.71239
 40
4.93679
 40
5.16119
 40
5.38559
 40
5.60999
 40
5.83439
 40
6.05879
 40
6.28319
 40
6.28319
 10
82.7883
 20
74.5873
 30
0
 10
83.0703
 20
74.5873
 30
0
 10
83.9024
 20
74.5873
 30
0
 10
85.2427
 20
74.5873
 30
0
 10
87.024
 20
74.5873
 30
0
 10
89.1571
 20
74.5873
 30
0
 10
91.5349
 20
74.5873
 30
0
 10
94.0383
 20
74.5873
 30
0
 10
96.5416
 20
74.5873
 30
0
 10
98.9195
 20
74.5873
 30
0
 10
101.053
 20
74.5873
 30
0
 10
102.834
 20
74.5873
 30
0
 10
104.174
 20
74.5873
 30
0
 10
105.006
 20
74.5873
 30
0
 10
105.288
 20
74.5873
 30
0
  0
LINE
  5
AA5
330
A02
100
AcDbEntity
  8
SectionView
100
AcDbLine
 10
113.913
 20
74.5873
 30
0
 11
105.288
 21
74.5873
 31
0
  0
SPLINE
  5
AA6
330
A02
100
AcDbEntity
  8
SectionView
100
AcDbSpline
210
0
220
0
230
1
 70
8
 71
1
 72
17
 73
15
 74
0
 40
3.14159
 40
3.14159
 40
3.36599
 40
3.59039
 40
3.81479
 40
4.03919
 40
4.26359
 40
4.48799
 40
4.71239
 40
4.93679
 40
5.16119
 40
5.38559
 40
5.60999
 40
5.83439
 40
6.05879
 40
6.28319
 40
6.28319
 10
113.913
 20
74.5873
 30
0
 10
114.073
 20
74.5873
 30
0
 10
114.545
 20
74.5873
 30
0
 10
115.304
 20
74.5873
 30
0
 10
116.314
 20
74.5873
 30
0
 10
117.522
 20
74.5873
 30
0
 10
118.87
 20
74.5873
 30
0
 10
120.288
 20
74.5873
 30
0
 10
121.707
 20
74.5873
 30
0
 10
123.054
 20
74.5873
 30
0
 10
124.263
 20
74.5873
 30
0
 10
125.272
 20
74.5873
 30
0
 10
126.032
 20
74.5873
 30
0
 10
126.503
 20
74.5873
 30
0
 10
126.663
 20
74.5873
 30
0
  0
LINE
  5
AA7
330
A02
100
AcDbEntity
  8
SectionView
100
AcDbLine
 10
135.288
 20
74.5873
 30
0
 11
126.663
 21
74.5873
 31
0
  0
LINE
  5
AA8
330
A02
100
AcDbEntity
  8
SectionView
100
AcDbLine
 10
46.4133
 20
67.0873
 30
0
 11
46.4133
 21
74.5873
 31
0
  0
LINE
  5
AA9
330
A02
100
AcDbEntity
  8
SectionView
100
AcDbLine
 10
46.4133
 20
67.0873
 30
0
 11
37.7883
 21
67.0873
 31
0
  0
SPLINE
  5
AAA
330
A02
100
AcDbEntity
  8
SectionView
100
AcDbSpline
210
0
220
0
230
1
 70
8
 71
1
 72
17
 73
15
 74
0
 40
3.14159
 40
3.14159
 40
3.36599
 40
3.59039
 40
3.81479
 40
4.03919
 40
4.26359
 40
4.48799
 40
4.71239
 40
4.93679
 40
5.16119
 40
5.38559
 40
5.60999
 40
5.83439
 40
6.05879
 40
6.28319
 40
6.28319
 10
46.4133
 20
67.0873
 30
0
 10
46.5731
 20
67.0873
 30
0
 10
47.0446
 20
67.0873
 30
0
 10
47.8041
 20
67.0873
 30
0
 10
48.8135
 20
67.0873
 30
0
 10
50.0223
 20
67.0873
 30
0
 10
51.3697
 20
67.0873
 30
0
 10
52.7883
 20
67.0873
 30
0
 10
54.2068
 20
67.0873
 30
0
 10
55.5543
 20
67.0873
 30
0
 10
56.763
 20
67.0873
 30
0
 10
57.7725
 20
67.0873
 30
0
 10
58.532
 20
67.0873
 30
0
 10
59.0034
 20
67.0873
 30
0
 10
59.1633
 20
67.0873
 30
0
  0
LINE
  5
AAB
330
A02
100
AcDbEntity
  8
SectionView
100
AcDbLine
 10
72.1383
 20
67.0873
 30
0
 11
59.1633
 21
67.0873
 31
0
  0
SPLINE
  5
AAC
330
A02
100
AcDbEntity
  8
SectionView
100
AcDbSpline
210
0
220
0
230
1
 70
8
 71
1
 72
17
 73
15
 74
0
 40
3.14159
 40
3.14159
 40
3.36599
 40
3.59039
 40
3.81479
 40
4.03919
 40
4.26359
 40
4.48799
 40
4.71239
 40
4.93679
 40
5.16119
 40
5.38559
 40
5.60999
 40
5.83439
 40
6.05879
 40
6.28319
 40
6.28319
 10
72.1383
 20
67.0873
 30
0
 10
72.2173
 20
67.0873
 30
0
 10
72.4502
 20
67.0873
 30
0
 10
72.8255
 20
67.0873
 30
0
 10
73.3243
 20
67.0873
 30
0
 10
73.9215
 20
67.0873
 30
0
 10
74.5873
 20
67.0873
 30
0
 10
75.2883
 20
67.0873
 30
0
 10
75.9892
 20
67.0873
 30
0
 10
76.655
 20
67.0873
 30
0
 10
77.2523
 20
67.0873
 30
0
 10
77.751
 20
67.0873
 30
0
 10
78.1263
 20
67.0873
 30
0
 10
78.3593
 20
67.0873
 30
0
 10
78.4383
 20
67.0873
 30
0
  0
LINE
  5
AAD
330
A02
100
AcDbEntity
  8
SectionView
100
AcDbLine
 10
82.7883
 20
67.0873
 30
0
 11
78.4383
 21
67.0873
 31
0
  0
SPLINE
  5
AAE
330
A02
100
AcDbEntity
  8
SectionView
100
AcDbSpline
210
0
220
0
230
1
 70
8
 71
1
 72
17
 73
15
 74
0
 40
3.14159
 40
3.14159
 40
3.36599
 40
3.59039
 40
3.81479
 40
4.03919
 40
4.26359
 40
4.48799
 40
4.71239
 40
4.93679
 40
5.16119
 40
5.38559
 40
5.60999
 40
5.83439
 40
6.05879
 40
6.28319
 40
6.28319
 10
82.7883
 20
67.0873
 30
0
 10
83.0703
 20
67.0873
 30
0
 10
83.9024
 20
67.0873
 30
0
 10
85.2427
 20
67.0873
 30
0
 10
87.024
 20
67.0873
 30
0
 10
89.1571
 20
67.0873
 30
0
 10
91.5349
 20
67.0873
 30
0
 10
94.0383
 20
67.0873
 30
0
 10
96.5416
 20
67.0873
 30
0
 10
98.9195
 20
67.0873
 30
0
 10
101.053
 20
67.0873
 30
0
 10
102.834
 20
67.0873
 30
0
 10
104.174
 20
67.0873
 30
0
 10
105.006
 20
67.0873
 30
0
 10
105.288
 20
67.0873
 30
0
  0
LINE
  5
AAF
330
A02
100
AcDbEntity
  8
SectionView
100
AcDbLine
 10
113.913
 20
67.0873
 30
0
 11
105.288
 21
67.0873
 31
0
  0
SPLINE
  5
AB0
330
A02
100
AcDbEntity
  8
SectionView
100
AcDbSpline
210
0
220
0
230
1
 70
8
 71
1
 72
17
 73
15
 74
0
 40
3.14159
 40
3.14159
 40
3.36599
 40
3.59039
 40
3.81479
 40
4.03919
 40
4.26359
 40
4.48799
 40
4.71239
 40
4.93679
 40
5.16119
 40
5.38559
 40
5.60999
 40
5.83439
 40
6.05879
 40
6.28319
 40
6.28319
 10
113.913
 20
67.0873
 30
0
 10
114.073
 20
67.0873
 30
0
 10
114.545
 20
67.0873
 30
0
 10
115.304
 20
67.0873
 30
0
 10
116.314
 20
67.0873
 30
0
 10
117.522
 20
67.0873
 30
0
 10
118.87
 20
67.0873
 30
0
 10
120.288
 20
67.0873
 30
0
 10
121.707
 20
67.0873
 30
0
 10
123.054
 20
67.0873
 30
0
 10
124.263
 20
67.0873
 30
0
 10
125.272
 20
67.0873
 30
0
 10
126.032
 20
67.0873
 30
0
 10
126.503
 20
67.0873
 30
0
 10
126.663
 20
67.0873
 30
0
  0
LINE
  5
AB1
330
A02
100
AcDbEntity
  8
SectionView
100
AcDbLine
 10
135.288
 20
67.0873
 30
0
 11
126.663
 21
67.0873
 31
0
  0
LINE
  5
AB2
330
A02
100
AcDbEntity
  8
SectionView
100
AcDbLine
 10
59.1633
 20
74.5873
 30
0
 11
59.1633
 21
67.0873
 31
0
  0
LINE
  5
AB3
330
A02
100
AcDbEntity
  8
SectionView
100
AcDbLine
 10
72.1383
 20
67.0873
 30
0
 11
72.1383
 21
74.5873
 31
0
  0
LINE
  5
AB4
330
A02
100
AcDbEntity
  8
SectionView
100
AcDbLine
 10
78.4383
 20
74.5873
 30
0
 11
78.4383
 21
67.0873
 31
0
  0
LINE
  5
AB5
330
A02
100
AcDbEntity
  8
SectionView
100
AcDbLine
 10
82.7883
 20
67.0873
 30
0
 11
82.7883
 21
74.5873
 31
0
  0
LINE
  5
AB6
330
A02
100
AcDbEntity
  8
SectionView
100
AcDbLine
 10
105.288
 20
74.5873
 30
0
 11
105.288
 21
67.0873
 31
0
  0
LINE
  5
AB7
330
A02
100
AcDbEntity
  8
SectionView
100
AcDbLine
 10
113.913
 20
67.0873
 30
0
 11
113.913
 21
74.5873
 31
0
  0
LINE
  5
AB8
330
A02
100
AcDbEntity
  8
SectionView
100
AcDbLine
 10
126.663
 20
74.5873
 30
0
 11
126.663
 21
67.0873
 31
0
  0
LINE
  5
AB9
330
A02
100
AcDbEntity
  8
SectionView
100
AcDbLine
 10
135.288
 20
74.5873
 30
0
 11
135.288
 21
67.0873
 31
0
  0
DIMENSION
  5
ABA
330
A02
100
AcDbEntity
  8
Dimension018
100
AcDbDimension
  2
*Dimension018
 10
19.7261
 20
71.9976
 30
0
 11
24.7261
 21
71.9976
 31
0
 70
32
  1
5
  3
STANDARD
100
AcDbAlignedDimension
 13
37.7883
 23
67.0873
 33
0
 14
37.7883
 24
74.5873
 34
0
 50
90
100
AcDbRotatedDimension
  0
TEXT
  5
AC4
330
A02
100
AcDbEntity
  8
Annotation001
100
AcDbText
 10
210.473
 20
91.1889
 30
0
 40
5
  1
Die 15-er Bohrung sollte 25° schräg sein 
  7
STANDARD
 72
1
 11
210.473
 21
91.1889
 31
0
100
AcDbText
  0
ENDSEC
  0
SECTION
  2
OBJECTS
  0
DICTIONARY
  5
F000
330
0
100
AcDbDictionary
  3
ACAD_GROUP
350
F001
  0
DICTIONARY
  5
F001
330
F000
100
AcDbDictionary
  0
ENDSEC
  0
EOF