999
FreeCAD v0.20 29410 (Git)
  0
SECTION
  2
HEADER
  9
$ACADVER
  1
AC1014
  9
$ACADMAINTVER
 70
     9
  9
$DWGCODEPAGE
  3
ANSI_1252
  9
$TEXTSTYLE
  7
STANDARD
  9
$DIMSTYLE
  2
STANDARD
  9
$DIMTXSTY
  7
STANDARD
  9
$CMLSTYLE
  2
STANDARD
  9
$LUNITS
 70
2
  9
$INSUNITS
 70
4
  9
$PEXTMAX
 10
50
 20
50
 30
50
  9
$PEXTMIN
 10
0
 20
0
 30
0
  9
$HANDSEED
  5
FFFF
  0
ENDSEC
  0
SECTION
  2
CLASSES
  0
CLASS
  1
ACDBDICTIONARYWDFLT
  2
AcDbDictionaryWithDefault
  3
ObjectDBX Classes
 90
        0
280
     0
281
     0
  0
CLASS
  1
XRECORD
  2
AcDbXrecord
  3
ObjectDBX Classes
 90
        0
280
     0
281
     0
  0
CLASS
  1
LWPOLYLINE
  2
AcDbPolyline
  3
ObjectDBX Classes
 90
        0
280
     0
281
     1
  0
ENDSEC
  0
SECTION
  2
TABLES
  0
TABLE
  2
VPORT
  5
20
330
0
100
AcDbSymbolTable
 70
     1
  0
VPORT
  5
21
330
20
100
AcDbSymbolTableRecord
100
AcDbViewportTableRecord
  2
*ACTIVE
 70
     0
  0
ENDTAB
  0
TABLE
  2
LTYPE
  5
22
330
0
100
AcDbSymbolTable
 70
     1
  0
LTYPE
  5
23
330
21
100
AcDbSymbolTableRecord
100
AcDbLinetypeTableRecord
  2
BYBLOCK
 70
     0
  3

 72
    65
 73
     0
 40
0.0
  0
LTYPE
  5
24
330
21
100
AcDbSymbolTableRecord
100
AcDbLinetypeTableRecord
  2
BYLAYER
 70
     0
  3

 72
    65
 73
     0
 40
0.0
  0
LTYPE
  5
25
330
21
100
AcDbSymbolTableRecord
100
AcDbLinetypeTableRecord
  2
CONTINUOUS
 70
     0
  3
Solid line
 72
    65
 73
     0
 40
0.0
  0
ENDTAB
  0
TABLE
  2
LAYER
  5
A94
330
0
100
AcDbSymbolTable
 70
14
  0
LAYER
  5
A95
330
A94
100
AcDbSymbolTableRecord
100
AcDbLayerTableRecord
  2
0
 70
   0
 62
   7
  6
CONTINUOUS
  0
LAYER
  5
A96
330
A94
100
AcDbSymbolTableRecord
100
AcDbLayerTableRecord
  2
View
 70
    0
 62
    7
  6
CONTINUOUS
  0
LAYER
  5
A97
330
A94
100
AcDbSymbolTableRecord
100
AcDbLayerTableRecord
  2
ProjItem
 70
    0
 62
    7
  6
CONTINUOUS
  0
LAYER
  5
A98
330
A94
100
AcDbSymbolTableRecord
100
AcDbLayerTableRecord
  2
Dimension
 70
    0
 62
    7
  6
CONTINUOUS
  0
LAYER
  5
A99
330
A94
100
AcDbSymbolTableRecord
100
AcDbLayerTableRecord
  2
Dimension001
 70
    0
 62
    7
  6
CONTINUOUS
  0
LAYER
  5
A9A
330
A94
100
AcDbSymbolTableRecord
100
AcDbLayerTableRecord
  2
Dimension002
 70
    0
 62
    7
  6
CONTINUOUS
  0
LAYER
  5
A9B
330
A94
100
AcDbSymbolTableRecord
100
AcDbLayerTableRecord
  2
Dimension003
 70
    0
 62
    7
  6
CONTINUOUS
  0
LAYER
  5
A9C
330
A94
100
AcDbSymbolTableRecord
100
AcDbLayerTableRecord
  2
Dimension004
 70
    0
 62
    7
  6
CONTINUOUS
  0
LAYER
  5
A9D
330
A94
100
AcDbSymbolTableRecord
100
AcDbLayerTableRecord
  2
Dimension005
 70
    0
 62
    7
  6
CONTINUOUS
  0
LAYER
  5
A9E
330
A94
100
AcDbSymbolTableRecord
100
AcDbLayerTableRecord
  2
Dimension006
 70
    0
 62
    7
  6
CONTINUOUS
  0
LAYER
  5
A9F
330
A94
100
AcDbSymbolTableRecord
100
AcDbLayerTableRecord
  2
Annotation
 70
    0
 62
    7
  6
CONTINUOUS
  0
LAYER
  5
AA0
330
A94
100
AcDbSymbolTableRecord
100
AcDbLayerTableRecord
  2
Dimension007
 70
    0
 62
    7
  6
CONTINUOUS
  0
LAYER
  5
AA1
330
A94
100
AcDbSymbolTableRecord
100
AcDbLayerTableRecord
  2
Dimension008
 70
    0
 62
    7
  6
CONTINUOUS
  0
LAYER
  5
AA2
330
A94
100
AcDbSymbolTableRecord
100
AcDbLayerTableRecord
  2
Annotation001
 70
    0
 62
    7
  6
CONTINUOUS
  0
ENDTAB
  0
TABLE
  2
STYLE
  5
70
330
0
100
AcDbSymbolTable
 70
     2
  0
STYLE
  5
71
330
70
100
AcDbSymbolTableRecord
100
AcDbTextStyleTableRecord
  2
STANDARD
 70
     0
 40
0.0
 41
1.0
 50
0.0
 71
     0
 42
2.5
  3
arial.ttf
  4

  0
STYLE
  5
72
330
70
100
AcDbSymbolTableRecord
100
AcDbTextStyleTableRecord
  2
ANNOTATIVE
 70
     0
 40
0.0
 41
1.0
 50
0.0
 71
     0
 42
2.5
  3
arial.ttf
  4

  0
ENDTAB
  0
TABLE
  2
VIEW
  5
73
330
0
100
AcDbSymbolTable
 70
     0
  0
ENDTAB
  0
TABLE
  2
UCS
  5
74
330
0
100
AcDbSymbolTable
 70
     0
  0
ENDTAB
  0
TABLE
  2
APPID
  5
75
330
0
100
AcDbSymbolTable
 70
     2
  0
APPID
  5
76
330
75
100
AcDbSymbolTableRecord
100
AcDbRegAppTableRecord
  2
ACAD
 70
     0
  0
APPID
  5
77
330
75
100
AcDbSymbolTableRecord
100
AcDbRegAppTableRecord
  2
ACADANNOTATIVE
 70
     0
  0
ENDTAB
  0
TABLE
  2
DIMSTYLE
  5
78
330
0
100
AcDbSymbolTable
 70
     2
  0
DIMSTYLE
105
79
330
78
100
AcDbSymbolTableRecord
100
AcDbDimStyleTableRecord
  2
STANDARD
 70
     0
  3

  4

  5

  6

  7

 40
0.0
 41
2.5
 42
0.625
 43
3.75
 44
1.25
 45
0.0
 46
0.0
 47
0.0
 48
0.0
140
2.5
141
2.5
142
0.0
143
0.03937007874016
144
1.0
145
0.0
146
1.0
147
0.625
 71
     0
 72
     0
 73
     0
 74
     0
 75
     0
 76
     0
 77
     1
 78
     8
170
     0
171
     3
172
     1
173
     0
174
     0
175
     0
176
     0
177
     0
178
     0
270
     2
271
     2
272
     2
273
     2
274
     3
340
71
275
     0
280
     0
281
     0
282
     0
283
     0
284
     8
285
     0
286
     0
287
     3
288
     0
  0
ENDTAB
  0
TABLE
  2
BLOCK_RECORD
  5
A01
330
0
100
AcDbSymbolTable
  70
5
  0
BLOCK_RECORD
  5
A02
330
A01
100
AcDbSymbolTableRecord
100
AcDbBlockTableRecord
  2
*MODEL_SPACE
  0
BLOCK_RECORD
  5
A03
330
A01
100
AcDbSymbolTableRecord
100
AcDbBlockTableRecord
  2
*PAPER_SPACE
  0
BLOCK_RECORD
  5
A3D
330
A01
100
AcDbSymbolTableRecord
100
AcDbBlockTableRecord
  2
*Dimension
  0
BLOCK_RECORD
  5
A47
330
A01
100
AcDbSymbolTableRecord
100
AcDbBlockTableRecord
  2
*Dimension001
  0
BLOCK_RECORD
  5
A51
330
A01
100
AcDbSymbolTableRecord
100
AcDbBlockTableRecord
  2
*Dimension002
  0
BLOCK_RECORD
  5
A5B
330
A01
100
AcDbSymbolTableRecord
100
AcDbBlockTableRecord
  2
*Dimension003
  0
BLOCK_RECORD
  5
A65
330
A01
100
AcDbSymbolTableRecord
100
AcDbBlockTableRecord
  2
*Dimension004
  0
BLOCK_RECORD
  5
A6F
330
A01
100
AcDbSymbolTableRecord
100
AcDbBlockTableRecord
  2
*Dimension005
  0
BLOCK_RECORD
  5
A79
330
A01
100
AcDbSymbolTableRecord
100
AcDbBlockTableRecord
  2
*Dimension006
  0
BLOCK_RECORD
  5
A84
330
A01
100
AcDbSymbolTableRecord
100
AcDbBlockTableRecord
  2
*Dimension007
  0
BLOCK_RECORD
  5
A8C
330
A01
100
AcDbSymbolTableRecord
100
AcDbBlockTableRecord
  2
*Dimension008
  0
ENDTAB
  0
ENDSEC
  0
SECTION
  2
BLOCKS
  0
BLOCK
  5
A04
330
A02
100
AcDbEntity
  8
0
100
AcDbBlockBegin
  2
*MODEL_SPACE
 70
   0
 10
0
 20
0
 30
0
  3
*MODEL_SPACE
  1
 
  0
ENDBLK
  5
A05
330
A02
100
AcDbEntity
  8
0
100
AcDbBlockEnd
  0
BLOCK
  5
A06
330
A03
100
AcDbEntity
 67
1
  8
0
100
AcDbBlockBegin
  2
*PAPER_SPACE
 70
   0
 10
0
 20
0
 30
0
  3
*PAPER_SPACE
  1
 
  0
ENDBLK
  5
A07
330
A03
100
AcDbEntity
 67
    1
  8
0
100
AcDbBlockEnd
  0
BLOCK
  5
A3E
330
A3D
100
AcDbEntity
  8
Dimension
100
AcDbBlockBegin
  2
*Dimension
 70
   1
 10
0
 20
0
 30
0
  3
*Dimension
  1
 
  0
LINE
  5
A3F
330
A3D
100
AcDbEntity
  8
Dimension
100
AcDbLine
 10
48.3904
 20
168.511
 30
0
 11
48.3904
 21
186.362
 31
0
  0
LINE
  5
A40
330
A3D
100
AcDbEntity
  8
Dimension
100
AcDbLine
 10
38.3904
 20
168.511
 30
0
 11
38.3904
 21
186.362
 31
0
  0
LINE
  5
A41
330
A3D
100
AcDbEntity
  8
Dimension
100
AcDbLine
 10
38.3904
 20
186.362
 30
0
 11
48.3904
 21
186.362
 31
0
  0
TEXT
  5
A42
330
A3D
100
AcDbEntity
  8
Dimension
100
AcDbText
 10
31.7204
 20
191.362
 30
0
 40
3.5
  1
10
  7
STANDARD
 72
1
 11
31.7204
 21
186.362
 31
0
100
AcDbText
  0
SOLID
  5
A43
330
A3D
100
AcDbEntity
  8
0
 62
     0
100
AcDbTrace
 10
33.3904
 20
186.779
 30
0
 11
33.3904
 21
185.946
 31
0
 12
38.3904
 22
186.362
 32
0
 13
38.3904
 23
186.362
 33
0
  0
SOLID
  5
A44
330
A3D
100
AcDbEntity
  8
0
 62
     0
100
AcDbTrace
 10
53.3904
 20
186.779
 30
0
 11
53.3904
 21
185.946
 31
0
 12
48.3904
 22
186.362
 32
0
 13
48.3904
 23
186.362
 33
0
  0
ENDBLK
  5
A45
330
A3D
100
AcDbEntity
  8
Dimension
100
AcDbBlockEnd
  0
BLOCK
  5
A48
330
A47
100
AcDbEntity
  8
Dimension001
100
AcDbBlockBegin
  2
*Dimension001
 70
   1
 10
0
 20
0
 30
0
  3
*Dimension001
  1
 
  0
LINE
  5
A49
330
A47
100
AcDbEntity
  8
Dimension001
100
AcDbLine
 10
52.3904
 20
174.511
 30
0
 11
19.4962
 21
174.511
 31
0
  0
LINE
  5
A4A
330
A47
100
AcDbEntity
  8
Dimension001
100
AcDbLine
 10
52.3904
 20
164.511
 30
0
 11
19.4962
 21
164.511
 31
0
  0
LINE
  5
A4B
330
A47
100
AcDbEntity
  8
Dimension001
100
AcDbLine
 10
19.4962
 20
164.511
 30
0
 11
19.4962
 21
174.511
 31
0
  0
TEXT
  5
A4C
330
A47
100
AcDbEntity
  8
Dimension001
100
AcDbText
 10
24.4962
 20
181.404
 30
0
 40
3.5
  1
10
  7
STANDARD
 72
1
 11
19.4962
 21
181.404
 31
0
100
AcDbText
  0
SOLID
  5
A4D
330
A47
100
AcDbEntity
  8
0
 62
     0
100
AcDbTrace
 10
19.0795
 20
159.511
 30
0
 11
19.9128
 21
159.511
 31
0
 12
19.4962
 22
164.511
 32
0
 13
19.4962
 23
164.511
 33
0
  0
SOLID
  5
A4E
330
A47
100
AcDbEntity
  8
0
 62
     0
100
AcDbTrace
 10
19.0795
 20
179.511
 30
0
 11
19.9128
 21
179.511
 31
0
 12
19.4962
 22
174.511
 32
0
 13
19.4962
 23
174.511
 33
0
  0
ENDBLK
  5
A4F
330
A47
100
AcDbEntity
  8
Dimension001
100
AcDbBlockEnd
  0
BLOCK
  5
A52
330
A51
100
AcDbEntity
  8
Dimension002
100
AcDbBlockBegin
  2
*Dimension002
 70
   1
 10
0
 20
0
 30
0
  3
*Dimension002
  1
 
  0
LINE
  5
A53
330
A51
100
AcDbEntity
  8
Dimension002
100
AcDbLine
 10
98.3904
 20
143.011
 30
0
 11
98.3904
 21
87.0961
 31
0
  0
LINE
  5
A54
330
A51
100
AcDbEntity
  8
Dimension002
100
AcDbLine
 10
38.3904
 20
143.011
 30
0
 11
38.3904
 21
87.0961
 31
0
  0
LINE
  5
A55
330
A51
100
AcDbEntity
  8
Dimension002
100
AcDbLine
 10
38.3904
 20
87.0961
 30
0
 11
98.3904
 21
87.0961
 31
0
  0
TEXT
  5
A56
330
A51
100
AcDbEntity
  8
Dimension002
100
AcDbText
 10
67.3575
 20
92.0961
 30
0
 40
3.5
  1
60
  7
STANDARD
 72
1
 11
67.3575
 21
87.0961
 31
0
100
AcDbText
  0
SOLID
  5
A57
330
A51
100
AcDbEntity
  8
0
 62
     0
100
AcDbTrace
 10
33.3904
 20
86.6795
 30
0
 11
33.3904
 21
87.5128
 31
0
 12
38.3904
 22
87.0961
 32
0
 13
38.3904
 23
87.0961
 33
0
  0
SOLID
  5
A58
330
A51
100
AcDbEntity
  8
0
 62
     0
100
AcDbTrace
 10
103.39
 20
86.6795
 30
0
 11
103.39
 21
87.5128
 31
0
 12
98.3904
 22
87.0961
 32
0
 13
98.3904
 23
87.0961
 33
0
  0
ENDBLK
  5
A59
330
A51
100
AcDbEntity
  8
Dimension002
100
AcDbBlockEnd
  0
BLOCK
  5
A5C
330
A5B
100
AcDbEntity
  8
Dimension003
100
AcDbBlockBegin
  2
*Dimension003
 70
   1
 10
0
 20
0
 30
0
  3
*Dimension003
  1
 
  0
LINE
  5
A5D
330
A5B
100
AcDbEntity
  8
Dimension003
100
AcDbLine
 10
98.3904
 20
140.911
 30
0
 11
98.3904
 21
160.707
 31
0
  0
LINE
  5
A5E
330
A5B
100
AcDbEntity
  8
Dimension003
100
AcDbLine
 10
115.39
 20
140.911
 30
0
 11
115.39
 21
160.707
 31
0
  0
LINE
  5
A5F
330
A5B
100
AcDbEntity
  8
Dimension003
100
AcDbLine
 10
115.39
 20
160.707
 30
0
 11
98.3904
 21
160.707
 31
0
  0
TEXT
  5
A60
330
A5B
100
AcDbEntity
  8
Dimension003
100
AcDbText
 10
109.35
 20
155.707
 30
0
 40
3.5
  1
17
  7
STANDARD
 72
1
 11
109.35
 21
160.707
 31
0
100
AcDbText
  0
SOLID
  5
A61
330
A5B
100
AcDbEntity
  8
0
 62
     0
100
AcDbTrace
 10
120.39
 20
161.124
 30
0
 11
120.39
 21
160.291
 31
0
 12
115.39
 22
160.707
 32
0
 13
115.39
 23
160.707
 33
0
  0
SOLID
  5
A62
330
A5B
100
AcDbEntity
  8
0
 62
     0
100
AcDbTrace
 10
93.3904
 20
161.124
 30
0
 11
93.3904
 21
160.291
 31
0
 12
98.3904
 22
160.707
 32
0
 13
98.3904
 23
160.707
 33
0
  0
ENDBLK
  5
A63
330
A5B
100
AcDbEntity
  8
Dimension003
100
AcDbBlockEnd
  0
BLOCK
  5
A66
330
A65
100
AcDbEntity
  8
Dimension004
100
AcDbBlockBegin
  2
*Dimension004
 70
   1
 10
0
 20
0
 30
0
  3
*Dimension004
  1
 
  0
LINE
  5
A67
330
A65
100
AcDbEntity
  8
Dimension004
100
AcDbLine
 10
158.39
 20
143.011
 30
0
 11
158.39
 21
87.3912
 31
0
  0
LINE
  5
A68
330
A65
100
AcDbEntity
  8
Dimension004
100
AcDbLine
 10
98.3904
 20
143.011
 30
0
 11
98.3904
 21
87.3912
 31
0
  0
LINE
  5
A69
330
A65
100
AcDbEntity
  8
Dimension004
100
AcDbLine
 10
98.3904
 20
87.3912
 30
0
 11
158.39
 21
87.3912
 31
0
  0
TEXT
  5
A6A
330
A65
100
AcDbEntity
  8
Dimension004
100
AcDbText
 10
131.587
 20
92.3912
 30
0
 40
3.5
  1
60
  7
STANDARD
 72
1
 11
131.587
 21
87.3912
 31
0
100
AcDbText
  0
SOLID
  5
A6B
330
A65
100
AcDbEntity
  8
0
 62
     0
100
AcDbTrace
 10
93.3904
 20
86.9746
 30
0
 11
93.3904
 21
87.8079
 31
0
 12
98.3904
 22
87.3912
 32
0
 13
98.3904
 23
87.3912
 33
0
  0
SOLID
  5
A6C
330
A65
100
AcDbEntity
  8
0
 62
     0
100
AcDbTrace
 10
163.39
 20
86.9746
 30
0
 11
163.39
 21
87.8079
 31
0
 12
158.39
 22
87.3912
 32
0
 13
158.39
 23
87.3912
 33
0
  0
ENDBLK
  5
A6D
330
A65
100
AcDbEntity
  8
Dimension004
100
AcDbBlockEnd
  0
BLOCK
  5
A70
330
A6F
100
AcDbEntity
  8
Dimension005
100
AcDbBlockBegin
  2
*Dimension005
 70
   1
 10
0
 20
0
 30
0
  3
*Dimension005
  1
 
  0
LINE
  5
A71
330
A6F
100
AcDbEntity
  8
Dimension005
100
AcDbLine
 10
121.79
 20
134.511
 30
0
 11
159.581
 21
134.511
 31
0
  0
LINE
  5
A72
330
A6F
100
AcDbEntity
  8
Dimension005
100
AcDbLine
 10
121.79
 20
94.511
 30
0
 11
159.581
 21
94.511
 31
0
  0
LINE
  5
A73
330
A6F
100
AcDbEntity
  8
Dimension005
100
AcDbLine
 10
159.581
 20
94.511
 30
0
 11
159.581
 21
134.511
 31
0
  0
TEXT
  5
A74
330
A6F
100
AcDbEntity
  8
Dimension005
100
AcDbText
 10
164.581
 20
116.273
 30
0
 40
3.5
  1
40
  7
STANDARD
 72
1
 11
159.581
 21
116.273
 31
0
100
AcDbText
  0
SOLID
  5
A75
330
A6F
100
AcDbEntity
  8
0
 62
     0
100
AcDbTrace
 10
159.998
 20
89.511
 30
0
 11
159.165
 21
89.511
 31
0
 12
159.581
 22
94.511
 32
0
 13
159.581
 23
94.511
 33
0
  0
SOLID
  5
A76
330
A6F
100
AcDbEntity
  8
0
 62
     0
100
AcDbTrace
 10
159.998
 20
139.511
 30
0
 11
159.165
 21
139.511
 31
0
 12
159.581
 22
134.511
 32
0
 13
159.581
 23
134.511
 33
0
  0
ENDBLK
  5
A77
330
A6F
100
AcDbEntity
  8
Dimension005
100
AcDbBlockEnd
  0
BLOCK
  5
A7A
330
A79
100
AcDbEntity
  8
Dimension006
100
AcDbBlockBegin
  2
*Dimension006
 70
   1
 10
0
 20
0
 30
0
  3
*Dimension006
  1
 
  0
LINE
  5
A7B
330
A79
100
AcDbEntity
  8
Dimension006
100
AcDbLine
 10
121.79
 20
174.511
 30
0
 11
159.581
 21
174.511
 31
0
  0
LINE
  5
A7C
330
A79
100
AcDbEntity
  8
Dimension006
100
AcDbLine
 10
121.79
 20
134.511
 30
0
 11
159.581
 21
134.511
 31
0
  0
LINE
  5
A7D
330
A79
100
AcDbEntity
  8
Dimension006
100
AcDbLine
 10
159.581
 20
134.511
 30
0
 11
159.581
 21
174.511
 31
0
  0
TEXT
  5
A7E
330
A79
100
AcDbEntity
  8
Dimension006
100
AcDbText
 10
164.581
 20
153.076
 30
0
 40
3.5
  1
40
  7
STANDARD
 72
1
 11
159.581
 21
153.076
 31
0
100
AcDbText
  0
SOLID
  5
A7F
330
A79
100
AcDbEntity
  8
0
 62
     0
100
AcDbTrace
 10
159.998
 20
129.511
 30
0
 11
159.165
 21
129.511
 31
0
 12
159.581
 22
134.511
 32
0
 13
159.581
 23
134.511
 33
0
  0
SOLID
  5
A80
330
A79
100
AcDbEntity
  8
0
 62
     0
100
AcDbTrace
 10
159.998
 20
179.511
 30
0
 11
159.165
 21
179.511
 31
0
 12
159.581
 22
174.511
 32
0
 13
159.581
 23
174.511
 33
0
  0
ENDBLK
  5
A81
330
A79
100
AcDbEntity
  8
Dimension006
100
AcDbBlockEnd
  0
BLOCK
  5
A85
330
A84
100
AcDbEntity
  8
Dimension007
100
AcDbBlockBegin
  2
*Dimension007
 70
   1
 10
0
 20
0
 30
0
  3
*Dimension007
  1
 
  0
LINE
  5
A86
330
A84
100
AcDbEntity
  8
Dimension007
100
AcDbLine
 10
91.8917
 20
134.641
 30
0
 11
104.889
 21
134.381
 31
0
  0
TEXT
  5
A87
330
A84
100
AcDbEntity
  8
Dimension007
100
AcDbText
 10
81.1757
 20
140.659
 30
0
 40
3.5
  1
⌀13
  7
STANDARD
 72
1
 11
81.1757
 21
140.659
 31
0
100
AcDbText
  0
SOLID
  5
A88
330
A84
100
AcDbEntity
  8
0
 62
     0
100
AcDbTrace
 10
96.899
 20
134.957
 30
0
 11
96.8824
 21
134.124
 31
0
 12
91.8917
 22
134.641
 32
0
 13
91.8917
 23
134.641
 33
0
  0
SOLID
  5
A89
330
A84
100
AcDbEntity
  8
0
 62
     0
100
AcDbTrace
 10
99.8984
 20
134.898
 30
0
 11
99.8818
 21
134.064
 31
0
 12
104.889
 22
134.381
 32
0
 13
104.889
 23
134.381
 33
0
  0
ENDBLK
  5
A8A
330
A84
100
AcDbEntity
  8
Dimension007
100
AcDbBlockEnd
  0
BLOCK
  5
A8D
330
A8C
100
AcDbEntity
  8
Dimension008
100
AcDbBlockBegin
  2
*Dimension008
 70
   1
 10
0
 20
0
 30
0
  3
*Dimension008
  1
 
  0
LINE
  5
A8E
330
A8C
100
AcDbEntity
  8
Dimension008
100
AcDbLine
 10
50.3903
 20
164.492
 30
0
 11
46.3905
 21
164.53
 31
0
  0
TEXT
  5
A8F
330
A8C
100
AcDbEntity
  8
Dimension008
100
AcDbText
 10
62.9772
 20
170.17
 30
0
 40
3.5
  1
⌀4
  7
STANDARD
 72
1
 11
62.9772
 21
170.17
 31
0
100
AcDbText
  0
SOLID
  5
A90
330
A8C
100
AcDbEntity
  8
0
 62
     0
100
AcDbTrace
 10
45.3865
 20
164.123
 30
0
 11
45.3946
 21
164.957
 31
0
 12
50.3903
 22
164.492
 32
0
 13
50.3903
 23
164.492
 33
0
  0
SOLID
  5
A91
330
A8C
100
AcDbEntity
  8
0
 62
     0
100
AcDbTrace
 10
51.3862
 20
164.065
 30
0
 11
51.3943
 21
164.898
 31
0
 12
46.3905
 22
164.53
 32
0
 13
46.3905
 23
164.53
 33
0
  0
ENDBLK
  5
A92
330
A8C
100
AcDbEntity
  8
Dimension008
100
AcDbBlockEnd
  0
ENDSEC
  0
SECTION
  2
ENTITIES
  0
LINE
  5
A08
330
A02
100
AcDbEntity
  8
View
100
AcDbLine
 10
39.4853
 20
55.7045
 30
0
 11
39.4853
 21
56.9293
 31
0
  0
LINE
  5
A09
330
A02
100
AcDbEntity
  8
View
100
AcDbLine
 10
67.7696
 20
73.2592
 30
0
 11
39.4853
 21
56.9293
 31
0
  0
LINE
  5
A0A
330
A02
100
AcDbEntity
  8
View
100
AcDbLine
 10
81.9117
 20
31.2096
 30
0
 11
81.9117
 21
32.4344
 31
0
  0
LINE
  5
A0B
330
A02
100
AcDbEntity
  8
View
100
AcDbLine
 10
39.4853
 20
55.7045
 30
0
 11
81.9117
 21
31.2096
 31
0
  0
LINE
  5
A0C
330
A02
100
AcDbEntity
  8
View
100
AcDbLine
 10
39.4853
 20
56.9293
 30
0
 11
81.9117
 21
32.4344
 31
0
  0
LINE
  5
A0D
330
A02
100
AcDbEntity
  8
View
100
AcDbLine
 10
110.196
 20
47.5395
 30
0
 11
110.196
 21
48.7643
 31
0
  0
LINE
  5
A0E
330
A02
100
AcDbEntity
  8
View
100
AcDbLine
 10
81.9117
 20
31.2096
 30
0
 11
110.196
 21
47.5395
 31
0
  0
LINE
  5
A0F
330
A02
100
AcDbEntity
  8
View
100
AcDbLine
 10
81.9117
 20
32.4344
 30
0
 11
110.196
 21
48.7643
 31
0
  0
LINE
  5
A10
330
A02
100
AcDbEntity
  8
View
100
AcDbLine
 10
110.196
 20
48.7643
 30
0
 11
67.7696
 21
73.2592
 31
0
  0
ELLIPSE
  5
A11
330
A02
100
AcDbEntity
  8
View
100
AcDbEllipse
 10
74.8406
 20
51.622
 30
0
 11
3.25
 21
1.99005e-16
 31
0
 40
0.57735
 41
0.332447
 42
2.80915
  0
ELLIPSE
  5
A12
330
A02
100
AcDbEntity
  8
View
100
AcDbEllipse
 10
74.8406
 20
52.8468
 30
0
 11
3.25
 21
1.99005e-16
 31
0
 40
0.57735
 41
5.49779
 42
0
  0
ELLIPSE
  5
A13
330
A02
100
AcDbEntity
  8
View
100
AcDbEllipse
 10
74.8406
 20
52.8468
 30
0
 11
3.25
 21
1.99005e-16
 31
0
 40
0.57735
 41
0
 42
3.14159
  0
ELLIPSE
  5
A14
330
A02
100
AcDbEntity
  8
View
100
AcDbEllipse
 10
74.8406
 20
52.8468
 30
0
 11
3.25
 21
1.99005e-16
 31
0
 40
0.57735
 41
3.14159
 42
5.49779
  0
ELLIPSE
  5
A15
330
A02
100
AcDbEntity
  8
View
100
AcDbEllipse
 10
80.851
 20
48.1519
 30
0
 11
2.2
 21
1.34711e-16
 31
0
 40
0.57735
 41
0.503071
 42
2.63852
  0
ELLIPSE
  5
A16
330
A02
100
AcDbEntity
  8
View
100
AcDbEllipse
 10
80.851
 20
49.3767
 30
0
 11
2.2
 21
1.34711e-16
 31
0
 40
0.57735
 41
5.49779
 42
0
  0
ELLIPSE
  5
A17
330
A02
100
AcDbEntity
  8
View
100
AcDbEllipse
 10
80.851
 20
49.3767
 30
0
 11
2.2
 21
1.34711e-16
 31
0
 40
0.57735
 41
0
 42
3.14159
  0
ELLIPSE
  5
A18
330
A02
100
AcDbEntity
  8
View
100
AcDbEllipse
 10
80.851
 20
49.3767
 30
0
 11
2.2
 21
1.34711e-16
 31
0
 40
0.57735
 41
3.14159
 42
5.49779
  0
ELLIPSE
  5
A19
330
A02
100
AcDbEntity
  8
View
100
AcDbEllipse
 10
67.7696
 20
69.1767
 30
0
 11
1
 21
6.12323e-17
 31
0
 40
0.57735
 41
5.49779
 42
0
  0
ELLIPSE
  5
A1A
330
A02
100
AcDbEntity
  8
View
100
AcDbEllipse
 10
67.7696
 20
69.1767
 30
0
 11
1
 21
6.12323e-17
 31
0
 40
0.57735
 41
0
 42
3.14159
  0
ELLIPSE
  5
A1B
330
A02
100
AcDbEntity
  8
View
100
AcDbEllipse
 10
67.7696
 20
69.1767
 30
0
 11
1
 21
6.12323e-17
 31
0
 40
0.57735
 41
3.14159
 42
5.49779
  0
ELLIPSE
  5
A1C
330
A02
100
AcDbEntity
  8
View
100
AcDbEllipse
 10
103.125
 20
48.7643
 30
0
 11
1
 21
6.12323e-17
 31
0
 40
0.57735
 41
5.49779
 42
0
  0
ELLIPSE
  5
A1D
330
A02
100
AcDbEntity
  8
View
100
AcDbEllipse
 10
103.125
 20
48.7643
 30
0
 11
1
 21
6.12323e-17
 31
0
 40
0.57735
 41
0
 42
3.14159
  0
ELLIPSE
  5
A1E
330
A02
100
AcDbEntity
  8
View
100
AcDbEllipse
 10
103.125
 20
48.7643
 30
0
 11
1
 21
6.12323e-17
 31
0
 40
0.57735
 41
3.14159
 42
5.49779
  0
ELLIPSE
  5
A1F
330
A02
100
AcDbEntity
  8
View
100
AcDbEllipse
 10
81.9117
 20
36.5168
 30
0
 11
1
 21
6.12323e-17
 31
0
 40
0.57735
 41
5.49779
 42
0
  0
ELLIPSE
  5
A20
330
A02
100
AcDbEntity
  8
View
100
AcDbEllipse
 10
81.9117
 20
36.5168
 30
0
 11
1
 21
6.12323e-17
 31
0
 40
0.57735
 41
0
 42
3.14159
  0
ELLIPSE
  5
A21
330
A02
100
AcDbEntity
  8
View
100
AcDbEllipse
 10
81.9117
 20
36.5168
 30
0
 11
1
 21
6.12323e-17
 31
0
 40
0.57735
 41
3.14159
 42
5.49779
  0
ELLIPSE
  5
A22
330
A02
100
AcDbEntity
  8
View
100
AcDbEllipse
 10
46.5564
 20
56.9293
 30
0
 11
1
 21
6.12323e-17
 31
0
 40
0.57735
 41
5.49779
 42
0
  0
ELLIPSE
  5
A23
330
A02
100
AcDbEntity
  8
View
100
AcDbEllipse
 10
46.5564
 20
56.9293
 30
0
 11
1
 21
6.12323e-17
 31
0
 40
0.57735
 41
0
 42
3.14159
  0
ELLIPSE
  5
A24
330
A02
100
AcDbEntity
  8
View
100
AcDbEllipse
 10
46.5564
 20
56.9293
 30
0
 11
1
 21
6.12323e-17
 31
0
 40
0.57735
 41
3.14159
 42
5.49779
  0
LINE
  5
A25
330
A02
100
AcDbEntity
  8
ProjItem
100
AcDbLine
 10
38.3904
 20
174.511
 30
0
 11
38.3904
 21
94.511
 31
0
  0
LINE
  5
A26
330
A02
100
AcDbEntity
  8
ProjItem
100
AcDbLine
 10
38.3904
 20
94.511
 30
0
 11
158.39
 21
94.511
 31
0
  0
LINE
  5
A27
330
A02
100
AcDbEntity
  8
ProjItem
100
AcDbLine
 10
158.39
 20
94.511
 30
0
 11
158.39
 21
174.511
 31
0
  0
LINE
  5
A28
330
A02
100
AcDbEntity
  8
ProjItem
100
AcDbLine
 10
158.39
 20
174.511
 30
0
 11
38.3904
 21
174.511
 31
0
  0
CIRCLE
  5
A29
330
A02
100
AcDbEntity
  8
ProjItem
100
AcDbCircle
 10
98.3904
 20
134.511
 40
6.5
  0
CIRCLE
  5
A2A
330
A02
100
AcDbEntity
  8
ProjItem
100
AcDbCircle
 10
115.39
 20
134.511
 40
4.4
  0
CIRCLE
  5
A2B
330
A02
100
AcDbEntity
  8
ProjItem
100
AcDbCircle
 10
48.3904
 20
164.511
 40
2
  0
CIRCLE
  5
A2C
330
A02
100
AcDbEntity
  8
ProjItem
100
AcDbCircle
 10
148.39
 20
164.511
 40
2
  0
CIRCLE
  5
A2D
330
A02
100
AcDbEntity
  8
ProjItem
100
AcDbCircle
 10
148.39
 20
104.511
 40
2
  0
CIRCLE
  5
A2E
330
A02
100
AcDbEntity
  8
ProjItem
100
AcDbCircle
 10
48.3904
 20
104.511
 40
2
  0
LINE
  5
A2F
330
A02
100
AcDbEntity
  8
ProjItem
100
AcDbLine
 10
52.3904
 20
164.511
 30
0
 11
44.3904
 21
164.511
 31
0
  0
LINE
  5
A30
330
A02
100
AcDbEntity
  8
ProjItem
100
AcDbLine
 10
48.3904
 20
168.511
 30
0
 11
48.3904
 21
160.511
 31
0
  0
LINE
  5
A31
330
A02
100
AcDbEntity
  8
ProjItem
100
AcDbLine
 10
152.39
 20
164.511
 30
0
 11
144.39
 21
164.511
 31
0
  0
LINE
  5
A32
330
A02
100
AcDbEntity
  8
ProjItem
100
AcDbLine
 10
148.39
 20
168.511
 30
0
 11
148.39
 21
160.511
 31
0
  0
LINE
  5
A33
330
A02
100
AcDbEntity
  8
ProjItem
100
AcDbLine
 10
152.39
 20
104.511
 30
0
 11
144.39
 21
104.511
 31
0
  0
LINE
  5
A34
330
A02
100
AcDbEntity
  8
ProjItem
100
AcDbLine
 10
148.39
 20
108.511
 30
0
 11
148.39
 21
100.511
 31
0
  0
LINE
  5
A35
330
A02
100
AcDbEntity
  8
ProjItem
100
AcDbLine
 10
52.3904
 20
104.511
 30
0
 11
44.3904
 21
104.511
 31
0
  0
LINE
  5
A36
330
A02
100
AcDbEntity
  8
ProjItem
100
AcDbLine
 10
48.3904
 20
108.511
 30
0
 11
48.3904
 21
100.511
 31
0
  0
LINE
  5
A37
330
A02
100
AcDbEntity
  8
ProjItem
100
AcDbLine
 10
106.89
 20
134.511
 30
0
 11
89.8904
 21
134.511
 31
0
  0
LINE
  5
A38
330
A02
100
AcDbEntity
  8
ProjItem
100
AcDbLine
 10
98.3904
 20
143.011
 30
0
 11
98.3904
 21
126.011
 31
0
  0
LINE
  5
A39
330
A02
100
AcDbEntity
  8
ProjItem
100
AcDbLine
 10
121.79
 20
134.511
 30
0
 11
108.99
 21
134.511
 31
0
  0
LINE
  5
A3A
330
A02
100
AcDbEntity
  8
ProjItem
100
AcDbLine
 10
115.39
 20
140.911
 30
0
 11
115.39
 21
128.111
 31
0
  0
ARC
  5
A3B
330
A02
100
AcDbEntity
  8
ProjItem
100
AcDbCircle
 10
115.39
 20
134.511
 30
0
 40
5.1788
100
AcDbArc
 50
-165
 51
105
  0
DIMENSION
  5
A3C
330
A02
100
AcDbEntity
  8
Dimension
100
AcDbDimension
  2
*Dimension
 10
31.7204
 20
186.362
 30
0
 11
31.7204
 21
191.362
 31
0
 70
32
  1
10
  3
STANDARD
100
AcDbAlignedDimension
 13
38.3904
 23
168.511
 33
0
 14
48.3904
 24
168.511
 34
0
100
AcDbRotatedDimension
  0
DIMENSION
  5
A46
330
A02
100
AcDbEntity
  8
Dimension001
100
AcDbDimension
  2
*Dimension001
 10
19.4962
 20
181.404
 30
0
 11
24.4962
 21
181.404
 31
0
 70
32
  1
10
  3
STANDARD
100
AcDbAlignedDimension
 13
52.3904
 23
164.511
 33
0
 14
52.3904
 24
174.511
 34
0
 50
90
100
AcDbRotatedDimension
  0
DIMENSION
  5
A50
330
A02
100
AcDbEntity
  8
Dimension002
100
AcDbDimension
  2
*Dimension002
 10
67.3575
 20
87.0961
 30
0
 11
67.3575
 21
92.0961
 31
0
 70
32
  1
60
  3
STANDARD
100
AcDbAlignedDimension
 13
38.3904
 23
143.011
 33
0
 14
98.3904
 24
143.011
 34
0
100
AcDbRotatedDimension
  0
DIMENSION
  5
A5A
330
A02
100
AcDbEntity
  8
Dimension003
100
AcDbDimension
  2
*Dimension003
 10
109.35
 20
160.707
 30
0
 11
109.35
 21
155.707
 31
0
 70
32
  1
17
  3
STANDARD
100
AcDbAlignedDimension
 13
115.39
 23
140.911
 33
0
 14
98.3904
 24
140.911
 34
0
100
AcDbRotatedDimension
  0
DIMENSION
  5
A64
330
A02
100
AcDbEntity
  8
Dimension004
100
AcDbDimension
  2
*Dimension004
 10
131.587
 20
87.3912
 30
0
 11
131.587
 21
92.3912
 31
0
 70
32
  1
60
  3
STANDARD
100
AcDbAlignedDimension
 13
98.3904
 23
143.011
 33
0
 14
158.39
 24
143.011
 34
0
100
AcDbRotatedDimension
  0
DIMENSION
  5
A6E
330
A02
100
AcDbEntity
  8
Dimension005
100
AcDbDimension
  2
*Dimension005
 10
159.581
 20
116.273
 30
0
 11
164.581
 21
116.273
 31
0
 70
32
  1
40
  3
STANDARD
100
AcDbAlignedDimension
 13
121.79
 23
94.511
 33
0
 14
121.79
 24
134.511
 34
0
 50
90
100
AcDbRotatedDimension
  0
DIMENSION
  5
A78
330
A02
100
AcDbEntity
  8
Dimension006
100
AcDbDimension
  2
*Dimension006
 10
159.581
 20
153.076
 30
0
 11
164.581
 21
153.076
 31
0
 70
32
  1
40
  3
STANDARD
100
AcDbAlignedDimension
 13
121.79
 23
134.511
 33
0
 14
121.79
 24
174.511
 34
0
 50
90
100
AcDbRotatedDimension
  0
TEXT
  5
A82
330
A02
100
AcDbEntity
  8
Annotation
100
AcDbText
 10
130.892
 20
136.036
 30
0
 40
5
  1
G 1/8"
  7
STANDARD
 72
1
 11
130.892
 21
136.036
 31
0
100
AcDbText
  0
DIMENSION
  5
A83
330
A02
100
AcDbEntity
  8
Dimension007
100
AcDbDimension
  2
*Dimension007
 10
91.8917
 20
134.641
 30
0
 11
81.1757
 21
140.659
 31
0
 70
3
  1
⌀13
  3
STANDARD
100
AcDbDiametricDimension
 15
104.889
 25
134.381
 35
0
 40
0
  0
DIMENSION
  5
A8B
330
A02
100
AcDbEntity
  8
Dimension008
100
AcDbDimension
  2
*Dimension008
 10
50.3903
 20
164.492
 30
0
 11
62.9772
 21
170.17
 31
0
 70
3
  1
⌀4
  3
STANDARD
100
AcDbDiametricDimension
 15
46.3905
 25
164.53
 35
0
 40
0
  0
TEXT
  5
A93
330
A02
100
AcDbEntity
  8
Annotation001
100
AcDbText
 10
201.915
 20
167.563
 30
0
 40
5
  1
Alu 3dick
  7
STANDARD
 72
1
 11
201.915
 21
167.563
 31
0
100
AcDbText
  0
ENDSEC
  0
SECTION
  2
OBJECTS
  0
DICTIONARY
  5
F000
330
0
100
AcDbDictionary
  3
ACAD_GROUP
350
F001
  0
DICTIONARY
  5
F001
330
F000
100
AcDbDictionary
  0
ENDSEC
  0
EOF