  0
SECTION
  2
HEADER
  9
$ACADVER
  1
AC1009
  9
$LIMMIN
 10
0.000000
 20
0.000000
  9
$LIMMAX
 10
388.717429
 20
158.873000
  9
$MEASUREMENT
 70
1
  0
ENDSEC
  0
SECTION
  2
TABLES
  0
TABLE
  2
LTYPE
 70
     4
  0
LTYPE
  2
CONTINUOUS
 70
     0
  3
Solid line
 72
     65
 73
     0
 40
0.000000
  0
LTYPE
  2
HIDDEN
 70
     0
  3
 _ _ _ _ _ _ _ _ _ _ _
 72
     65
 73
     2
 40
0.375000
 49
0.250000
 49
-0.125000
  0
LTYPE
  2
DASHED
 70
     0
  3
 ___ ___ ___ ___ ___ ___ ___ 
 72
     65
 73
     2
 40
0.750000
 49
0.500000
 49
-0.250000
  0
LTYPE
  2
CENTER
 70
     0
  3
___ _ ___ _ ___ _ ___
 72
     65
 73
     4
 40
2.000000
 49
1.250000
 49
-0.250000
 49
0.250000
 49
-0.250000
  0
LTYPE
  2
BORDER
 70
     0
  3
___ ___ . ___ ___ . ___ ___
 72
     65
 73
     6
 40
1.750000
 49
0.500000
 49
-0.250000
 49
0.500000
 49
-0.250000
 49
0.000000
 49
-0.250000
  0
LTYPE
  2
DOT
 70
     0
  3
.................
 72
     65
 73
     2
 40
0.250000
 49
0.000000
 49
-0.250000
  0
LTYPE
  2
DASHDOT
 70
     0
  3
__ . __ . __ . __
 72
     65
 73
     4
 40
1.000000
 49
0.500000
 49
-0.250000
 49
0.000000
 49
-0.250000
  0
LTYPE
  2
DIVIDE
 70
     0
  3
___ .. ___ .. ___ .. ___
 72
     65
 73
     6
 40
1.250000
 49
0.500000
 49
-0.250000
 49
0.000000
 49
-0.250000
 49
0.000000
 49
-0.250000
  0
ENDTAB
  0
TABLE
  2
LAYER
 70
     8
  0
LAYER
  2
BLACK
 70
     0
 62
     1
  6
CONTINUOUS
  0
LAYER
  2
WHITE
 70
     0
 62
     7
  6
CONTINUOUS
  0
LAYER
  2
RED
 70
     0
 62
     1
  6
CONTINUOUS
  0
LAYER
  2
YELLOW
 70
     0
 62
     2
  6
CONTINUOUS
  0
LAYER
  2
GREEN
 70
     0
 62
     3
  6
CONTINUOUS
  0
LAYER
  2
CYAN
 70
     0
 62
     4
  6
CONTINUOUS
  0
LAYER
  2
BLUE
 70
     0
 62
     5
  6
CONTINUOUS
  0
LAYER
  2
MAGENTA
 70
     0
 62
     6
  6
CONTINUOUS
  0
ENDTAB
  0
TABLE
  2
APPID
 70
     1
  0
APPID
  2
TC_BEND_DATA
 70
     0
  0
ENDTAB
  0
ENDSEC
  0
SECTION
  2
BLOCKS
  0
ENDSEC
  0
SECTION
  2
ENTITIES
  0
TEXT
  8
WHITE
  1
Bl2,4x
 10
55.776127
 20
152.942214
 30
0.000000
 11
55.776127
 21
152.942214
 31
0.000000
 40
5.000000
 72
0
 73
3
  0
TEXT
  8
WHITE
  1
Bl2,4x
 10
28.432443
 20
62.985456
 30
0.000000
 11
28.432443
 21
62.985456
 31
0.000000
 40
5.000000
 72
0
 73
3
  0
TEXT
  8
WHITE
  1
Bem:Alu
 10
56.109252
 20
144.817214
 30
0.000000
 11
56.109252
 21
144.817214
 31
0.000000
 40
5.000000
 72
0
 73
3
  0
TEXT
  8
WHITE
  1
Bem:Alu
 10
28.765568
 20
54.860456
 30
0.000000
 11
28.765568
 21
54.860456
 31
0.000000
 40
5.000000
 72
0
 73
3
  0
TEXT
  8
WHITE
  1
Bl3,1x
 10
253.006601
 20
144.022342
 30
0.000000
 11
253.006601
 21
144.022342
 31
0.000000
 40
5.000000
 72
0
 73
3
  0
TEXT
  8
WHITE
  1
Bl3,1x
 10
346.382638
 20
129.824815
 30
0.000000
 11
346.382638
 21
129.824815
 31
0.000000
 40
5.000000
 72
0
 73
3
  0
TEXT
  8
WHITE
  1
Bem:S235 Lehre
 10
254.371747
 20
132.555109
 30
0.000000
 11
254.371747
 21
132.555109
 31
0.000000
 40
5.000000
 72
0
 73
3
  0
TEXT
  8
WHITE
  1
Bem:S235 Lehre
 10
347.201726
 20
115.081231
 30
0.000000
 11
347.201726
 21
115.081231
 31
0.000000
 40
5.000000
 72
0
 73
3
  0
LINE
  8
WHITE
 10
314.545900
 20
150.977000
 30
0.000000
 11
314.545900
 21
20.977000
 31
0.000000
  6
CONTINUOUS
  0
LINE
  8
WHITE
 10
314.545900
 20
20.977000
 30
0.000000
 11
218.545900
 21
20.977000
 31
0.000000
  6
CONTINUOUS
  0
LINE
  8
WHITE
 10
218.545900
 20
20.977000
 30
0.000000
 11
218.545900
 21
150.977000
 31
0.000000
  6
CONTINUOUS
  0
LINE
  8
WHITE
 10
218.545900
 20
150.977000
 30
0.000000
 11
314.545900
 21
150.977000
 31
0.000000
  6
CONTINUOUS
  0
CIRCLE
  8
WHITE
 10
248.545900
 20
50.977000
 30
0.000000
 40
2.500000
  6
CONTINUOUS
  0
CIRCLE
  8
WHITE
 10
248.545900
 20
120.977000
 30
0.000000
 40
2.500000
  6
CONTINUOUS
  0
CIRCLE
  8
WHITE
 10
231.545900
 20
74.977000
 30
0.000000
 40
1.600000
  6
CONTINUOUS
  0
CIRCLE
  8
WHITE
 10
231.545900
 20
146.977000
 30
0.000000
 40
1.600000
  6
CONTINUOUS
  0
CIRCLE
  8
WHITE
 10
301.545900
 20
74.977000
 30
0.000000
 40
1.600000
  6
CONTINUOUS
  0
CIRCLE
  8
WHITE
 10
301.545900
 20
146.977000
 30
0.000000
 40
1.600000
  6
CONTINUOUS
  0
CIRCLE
  8
WHITE
 10
237.970900
 20
40.977000
 30
0.000000
 40
1.250000
  6
CONTINUOUS
  0
CIRCLE
  8
WHITE
 10
249.400900
 20
40.977000
 30
0.000000
 40
1.250000
  6
CONTINUOUS
  0
CIRCLE
  8
WHITE
 10
260.830900
 20
40.977000
 30
0.000000
 40
1.250000
  6
CONTINUOUS
  0
CIRCLE
  8
WHITE
 10
272.260900
 20
40.977000
 30
0.000000
 40
1.250000
  6
CONTINUOUS
  0
CIRCLE
  8
WHITE
 10
283.690900
 20
40.977000
 30
0.000000
 40
1.250000
  6
CONTINUOUS
  0
CIRCLE
  8
WHITE
 10
295.120900
 20
40.977000
 30
0.000000
 40
1.250000
  6
CONTINUOUS
  0
LINE
  8
WHITE
 10
3.000000
 20
68.000000
 30
0.000000
 11
126.999900
 21
68.000000
 31
0.000000
  6
CONTINUOUS
  0
ARC
  8
WHITE
 10
126.999900
 20
65.000000
 30
0.000000
 40
3.000000
 50
0.000000
 51
90.000000
  6
CONTINUOUS
  0
LINE
  8
WHITE
 10
129.999900
 20
65.000000
 30
0.000000
 11
129.999900
 21
3.000000
 31
0.000000
  6
CONTINUOUS
  0
ARC
  8
WHITE
 10
126.999900
 20
3.000000
 30
0.000000
 40
3.000000
 50
-90.000000
 51
0.000000
  6
CONTINUOUS
  0
LINE
  8
WHITE
 10
126.999900
 20
0.000000
 30
0.000000
 11
31.242641
 21
0.000000
 31
0.000000
  6
CONTINUOUS
  0
ARC
  8
WHITE
 10
31.242641
 20
3.000000
 30
0.000000
 40
3.000000
 50
-135.000000
 51
-90.000000
  6
CONTINUOUS
  0
LINE
  8
WHITE
 10
29.121321
 20
0.878680
 30
0.000000
 11
0.878680
 21
29.121320
 31
0.000000
  6
CONTINUOUS
  0
ARC
  8
WHITE
 10
3.000000
 20
31.242641
 30
0.000000
 40
3.000000
 50
180.000000
 51
225.000014
  6
CONTINUOUS
  0
LINE
  8
WHITE
 10
0.000000
 20
31.242641
 30
0.000000
 11
0.000000
 21
65.000000
 31
0.000000
  6
CONTINUOUS
  0
ARC
  8
WHITE
 10
3.000000
 20
65.000000
 30
0.000000
 40
3.000000
 50
90.000000
 51
180.000000
  6
CONTINUOUS
  0
CIRCLE
  8
WHITE
 10
12.500000
 20
62.000000
 30
0.000000
 40
3.150000
  6
CONTINUOUS
  0
CIRCLE
  8
WHITE
 10
117.499900
 20
62.000000
 30
0.000000
 40
3.150000
  6
CONTINUOUS
  0
CIRCLE
  8
WHITE
 10
63.999900
 20
8.000000
 30
0.000000
 40
3.000000
  6
CONTINUOUS
  0
LINE
  8
WHITE
 10
127.161900
 20
158.873000
 30
0.000000
 11
3.161700
 21
158.873000
 31
0.000000
  6
CONTINUOUS
  0
ARC
  8
WHITE
 10
3.161700
 20
155.873000
 30
0.000000
 40
3.000000
 50
90.000000
 51
180.000000
  6
CONTINUOUS
  0
LINE
  8
WHITE
 10
0.161700
 20
155.873000
 30
0.000000
 11
0.161700
 21
106.873000
 31
0.000000
  6
CONTINUOUS
  0
ARC
  8
WHITE
 10
6.161700
 20
106.873000
 30
0.000000
 40
6.000000
 50
180.000000
 51
270.000000
  6
CONTINUOUS
  0
LINE
  8
WHITE
 10
6.161700
 20
100.873000
 30
0.000000
 11
50.689804
 21
100.873000
 31
0.000000
  6
CONTINUOUS
  0
ARC
  8
WHITE
 10
50.689804
 20
103.873000
 30
0.000000
 40
3.000000
 50
-90.000000
 51
-72.121411
  6
CONTINUOUS
  0
LINE
  8
WHITE
 10
51.610807
 20
101.017872
 30
0.000000
 11
81.358647
 21
110.613888
 31
0.000000
  6
CONTINUOUS
  0
ARC
  8
WHITE
 10
82.279650
 20
107.758760
 30
0.000000
 40
3.000000
 50
76.452061
 51
107.878587
  6
CONTINUOUS
  0
LINE
  8
WHITE
 10
82.982427
 20
110.675283
 30
0.000000
 11
123.661900
 21
100.873000
 31
0.000000
  6
CONTINUOUS
  0
LINE
  8
WHITE
 10
123.661900
 20
100.873000
 30
0.000000
 11
124.161900
 21
100.873000
 31
0.000000
  6
CONTINUOUS
  0
ARC
  8
WHITE
 10
124.161900
 20
106.873000
 30
0.000000
 40
6.000000
 50
-90.000000
 51
0.000000
  6
CONTINUOUS
  0
LINE
  8
WHITE
 10
130.161900
 20
106.873000
 30
0.000000
 11
130.161900
 21
155.873000
 31
0.000000
  6
CONTINUOUS
  0
ARC
  8
WHITE
 10
127.161900
 20
155.873000
 30
0.000000
 40
3.000000
 50
0.000000
 51
90.000000
  6
CONTINUOUS
  0
CIRCLE
  8
WHITE
 10
28.161700
 20
130.873000
 30
0.000000
 40
10.000000
  6
CONTINUOUS
  0
CIRCLE
  8
WHITE
 10
12.661700
 20
152.873000
 30
0.000000
 40
3.150000
  6
CONTINUOUS
  0
CIRCLE
  8
WHITE
 10
117.661900
 20
152.873000
 30
0.000000
 40
3.150000
  6
CONTINUOUS
  0
CIRCLE
  8
WHITE
 10
10.161700
 20
108.873000
 30
0.000000
 40
3.000000
  6
CONTINUOUS
  0
CIRCLE
  8
WHITE
 10
123.661900
 20
108.873000
 30
0.000000
 40
3.000000
  6
CONTINUOUS
  0
LINE
  8
WHITE
 10
341.750900
 20
150.227000
 30
0.000000
 11
341.750900
 21
20.227000
 31
0.000000
  6
CONTINUOUS
  0
LINE
  8
WHITE
 10
341.750900
 20
20.227000
 30
0.000000
 11
353.750900
 21
20.227000
 31
0.000000
  6
CONTINUOUS
  0
LINE
  8
WHITE
 10
353.750900
 20
20.227000
 30
0.000000
 11
353.750900
 21
150.227000
 31
0.000000
  6
CONTINUOUS
  0
LINE
  8
WHITE
 10
353.750900
 20
150.227000
 30
0.000000
 11
341.750900
 21
150.227000
 31
0.000000
  6
CONTINUOUS
  0
CIRCLE
  8
WHITE
 10
347.750900
 20
32.727000
 30
0.000000
 40
2.500000
  6
CONTINUOUS
  0
CIRCLE
  8
WHITE
 10
347.750900
 20
137.727000
 30
0.000000
 40
2.500000
  6
CONTINUOUS
  0
ENDSEC
  0
EOF
