999
FreeCAD v0.20 29410 (Git)
  0
SECTION
  2
HEADER
  9
$ACADVER
  1
AC1014
  9
$ACADMAINTVER
 70
     9
  9
$DWGCODEPAGE
  3
ANSI_1252
  9
$TEXTSTYLE
  7
STANDARD
  9
$DIMSTYLE
  2
STANDARD
  9
$DIMTXSTY
  7
STANDARD
  9
$CMLSTYLE
  2
STANDARD
  9
$LUNITS
 70
2
  9
$INSUNITS
 70
4
  9
$PEXTMAX
 10
50
 20
50
 30
50
  9
$PEXTMIN
 10
0
 20
0
 30
0
  9
$HANDSEED
  5
FFFF
  0
ENDSEC
  0
SECTION
  2
CLASSES
  0
CLASS
  1
ACDBDICTIONARYWDFLT
  2
AcDbDictionaryWithDefault
  3
ObjectDBX Classes
 90
        0
280
     0
281
     0
  0
CLASS
  1
XRECORD
  2
AcDbXrecord
  3
ObjectDBX Classes
 90
        0
280
     0
281
     0
  0
CLASS
  1
LWPOLYLINE
  2
AcDbPolyline
  3
ObjectDBX Classes
 90
        0
280
     0
281
     1
  0
ENDSEC
  0
SECTION
  2
TABLES
  0
TABLE
  2
VPORT
  5
20
330
0
100
AcDbSymbolTable
 70
     1
  0
VPORT
  5
21
330
20
100
AcDbSymbolTableRecord
100
AcDbViewportTableRecord
  2
*ACTIVE
 70
     0
  0
ENDTAB
  0
TABLE
  2
LTYPE
  5
22
330
0
100
AcDbSymbolTable
 70
     1
  0
LTYPE
  5
23
330
21
100
AcDbSymbolTableRecord
100
AcDbLinetypeTableRecord
  2
BYBLOCK
 70
     0
  3

 72
    65
 73
     0
 40
0.0
  0
LTYPE
  5
24
330
21
100
AcDbSymbolTableRecord
100
AcDbLinetypeTableRecord
  2
BYLAYER
 70
     0
  3

 72
    65
 73
     0
 40
0.0
  0
LTYPE
  5
25
330
21
100
AcDbSymbolTableRecord
100
AcDbLinetypeTableRecord
  2
CONTINUOUS
 70
     0
  3
Solid line
 72
    65
 73
     0
 40
0.0
  0
ENDTAB
  0
TABLE
  2
LAYER
  5
A37
330
0
100
AcDbSymbolTable
 70
3
  0
LAYER
  5
A38
330
A37
100
AcDbSymbolTableRecord
100
AcDbLayerTableRecord
  2
0
 70
   0
 62
   7
  6
CONTINUOUS
  0
LAYER
  5
A39
330
A37
100
AcDbSymbolTableRecord
100
AcDbLayerTableRecord
  2
none
 70
    0
 62
    7
  6
CONTINUOUS
  0
LAYER
  5
A3A
330
A37
100
AcDbSymbolTableRecord
100
AcDbLayerTableRecord
  2
Unfold_Sketch
 70
    0
 62
    7
  6
CONTINUOUS
  0
ENDTAB
  0
TABLE
  2
STYLE
  5
70
330
0
100
AcDbSymbolTable
 70
     2
  0
STYLE
  5
71
330
70
100
AcDbSymbolTableRecord
100
AcDbTextStyleTableRecord
  2
STANDARD
 70
     0
 40
0.0
 41
1.0
 50
0.0
 71
     0
 42
2.5
  3
arial.ttf
  4

  0
STYLE
  5
72
330
70
100
AcDbSymbolTableRecord
100
AcDbTextStyleTableRecord
  2
ANNOTATIVE
 70
     0
 40
0.0
 41
1.0
 50
0.0
 71
     0
 42
2.5
  3
arial.ttf
  4

  0
ENDTAB
  0
TABLE
  2
VIEW
  5
73
330
0
100
AcDbSymbolTable
 70
     0
  0
ENDTAB
  0
TABLE
  2
UCS
  5
74
330
0
100
AcDbSymbolTable
 70
     0
  0
ENDTAB
  0
TABLE
  2
APPID
  5
75
330
0
100
AcDbSymbolTable
 70
     2
  0
APPID
  5
76
330
75
100
AcDbSymbolTableRecord
100
AcDbRegAppTableRecord
  2
ACAD
 70
     0
  0
APPID
  5
77
330
75
100
AcDbSymbolTableRecord
100
AcDbRegAppTableRecord
  2
ACADANNOTATIVE
 70
     0
  0
ENDTAB
  0
TABLE
  2
DIMSTYLE
  5
78
330
0
100
AcDbSymbolTable
 70
     2
  0
DIMSTYLE
105
79
330
78
100
AcDbSymbolTableRecord
100
AcDbDimStyleTableRecord
  2
STANDARD
 70
     0
  3

  4

  5

  6

  7

 40
0.0
 41
2.5
 42
0.625
 43
3.75
 44
1.25
 45
0.0
 46
0.0
 47
0.0
 48
0.0
140
2.5
141
2.5
142
0.0
143
0.03937007874016
144
1.0
145
0.0
146
1.0
147
0.625
 71
     0
 72
     0
 73
     0
 74
     0
 75
     0
 76
     0
 77
     1
 78
     8
170
     0
171
     3
172
     1
173
     0
174
     0
175
     0
176
     0
177
     0
178
     0
270
     2
271
     2
272
     2
273
     2
274
     3
340
71
275
     0
280
     0
281
     0
282
     0
283
     0
284
     8
285
     0
286
     0
287
     3
288
     0
  0
ENDTAB
  0
TABLE
  2
BLOCK_RECORD
  5
A01
330
0
100
AcDbSymbolTable
  70
5
  0
BLOCK_RECORD
  5
A02
330
A01
100
AcDbSymbolTableRecord
100
AcDbBlockTableRecord
  2
*MODEL_SPACE
  0
BLOCK_RECORD
  5
A03
330
A01
100
AcDbSymbolTableRecord
100
AcDbBlockTableRecord
  2
*PAPER_SPACE
  0
ENDTAB
  0
ENDSEC
  0
SECTION
  2
BLOCKS
  0
BLOCK
  5
A04
330
A02
100
AcDbEntity
  8
0
100
AcDbBlockBegin
  2
*MODEL_SPACE
 70
   0
 10
0
 20
0
 30
0
  3
*MODEL_SPACE
  1
 
  0
ENDBLK
  5
A05
330
A02
100
AcDbEntity
  8
0
100
AcDbBlockEnd
  0
BLOCK
  5
A06
330
A03
100
AcDbEntity
 67
1
  8
0
100
AcDbBlockBegin
  2
*PAPER_SPACE
 70
   0
 10
0
 20
0
 30
0
  3
*PAPER_SPACE
  1
 
  0
ENDBLK
  5
A07
330
A03
100
AcDbEntity
 67
    1
  8
0
100
AcDbBlockEnd
  0
ENDSEC
  0
SECTION
  2
ENTITIES
  0
ARC
  5
A08
330
A02
100
AcDbEntity
  8
Unfold_Sketch
100
AcDbCircle
 10
-6
 20
230.586
 30
0
 40
6
100
AcDbArc
 50
0
 51
90
  0
LINE
  5
A09
330
A02
100
AcDbEntity
  8
Unfold_Sketch
100
AcDbLine
 10
-6
 20
236.586
 30
0
 11
-51
 21
236.586
 31
0
  0
LINE
  5
A0A
330
A02
100
AcDbEntity
  8
Unfold_Sketch
100
AcDbLine
 10
-51
 20
236.586
 30
0
 11
-82
 21
226.586
 31
0
  0
LINE
  5
A0B
330
A02
100
AcDbEntity
  8
Unfold_Sketch
100
AcDbLine
 10
-122.776
 20
235.081
 30
0
 11
-82
 21
226.586
 31
0
  0
ARC
  5
A0C
330
A02
100
AcDbEntity
  8
Unfold_Sketch
100
AcDbCircle
 10
-124
 20
229.207
 30
0
 40
6
100
AcDbArc
 50
78.2317
 51
180
  0
LINE
  5
A0D
330
A02
100
AcDbEntity
  8
Unfold_Sketch
100
AcDbLine
 10
-130
 20
30.4137
 30
0
 11
-130
 21
229.207
 31
0
  0
LINE
  5
A0E
330
A02
100
AcDbEntity
  8
Unfold_Sketch
100
AcDbLine
 10
-70
 20
1.41372
 30
0
 11
-130
 21
30.4137
 31
0
  0
LINE
  5
A0F
330
A02
100
AcDbEntity
  8
Unfold_Sketch
100
AcDbLine
 10
-60
 20
1.41372
 30
0
 11
-70
 21
1.41372
 31
0
  0
LINE
  5
A10
330
A02
100
AcDbEntity
  8
Unfold_Sketch
100
AcDbLine
 10
0
 20
30.4137
 30
0
 11
-60
 21
1.41372
 31
0
  0
LINE
  5
A11
330
A02
100
AcDbEntity
  8
Unfold_Sketch
100
AcDbLine
 10
0
 20
230.586
 30
0
 11
0
 21
30.4137
 31
0
  0
CIRCLE
  5
A12
330
A02
100
AcDbEntity
  8
Unfold_Sketch
100
AcDbCircle
 10
-28
 20
206.586
 40
10
  0
CIRCLE
  5
A13
330
A02
100
AcDbEntity
  8
Unfold_Sketch
100
AcDbCircle
 10
-64
 20
7.41372
 40
3
  0
CIRCLE
  5
A14
330
A02
100
AcDbEntity
  8
Unfold_Sketch
100
AcDbCircle
 10
-10
 20
228.586
 40
3
  0
CIRCLE
  5
A15
330
A02
100
AcDbEntity
  8
Unfold_Sketch
100
AcDbCircle
 10
-123.5
 20
228.586
 40
3
  0
CIRCLE
  5
A16
330
A02
100
AcDbEntity
  8
Unfold_Sketch
100
AcDbCircle
 10
-45
 20
150
 40
3
  0
CIRCLE
  5
A17
330
A02
100
AcDbEntity
  8
Unfold_Sketch
100
AcDbCircle
 10
-115
 20
150
 40
3
  0
CIRCLE
  5
A18
330
A02
100
AcDbEntity
  8
Unfold_Sketch
100
AcDbCircle
 10
-64
 20
25.4137
 40
3
  0
SPLINE
  5
A19
330
A02
100
AcDbEntity
  8
Unfold_Sketch
100
AcDbSpline
210
0
220
0
230
1
 70
8
 71
3
 72
11
 73
7
 74
0
 40
0
 40
0
 40
0
 40
0
 40
0.454553
 40
0.454553
 40
0.454553
 40
0.955065
 40
0.955065
 40
0.955065
 40
0.955065
 10
-120.336
 20
179.061
 30
0
 10
-120.483
 20
179.096
 30
0
 10
-120.627
 20
179.154
 30
0
 10
-120.749
 20
179.245
 30
0
 10
-120.882
 20
179.341
 30
0
 10
-120.992
 20
179.492
 30
0
 10
-120.991
 20
179.662
 30
0
  0
SPLINE
  5
A1A
330
A02
100
AcDbEntity
  8
Unfold_Sketch
100
AcDbSpline
210
0
220
0
230
1
 70
8
 71
3
 72
32
 73
28
 74
0
 40
0
 40
0
 40
0
 40
0
 40
0.509037
 40
0.509037
 40
0.509037
 40
0.827486
 40
0.827486
 40
0.827486
 40
1.88287
 40
1.88287
 40
1.88287
 40
2.18552
 40
2.18552
 40
2.18552
 40
2.44262
 40
2.44262
 40
2.44262
 40
2.67435
 40
2.67435
 40
2.67435
 40
2.92065
 40
2.92065
 40
2.92065
 40
3.20956
 40
3.20956
 40
3.20956
 40
3.54213
 40
3.54213
 40
3.54213
 40
3.54213
 10
-120.991
 20
179.662
 30
0
 10
-120.989
 20
179.843
 30
0
 10
-120.878
 20
179.986
 30
0
 10
-120.738
 20
180.087
 30
0
 10
-120.65
 20
180.149
 30
0
 10
-120.555
 20
180.197
 30
0
 10
-120.453
 20
180.23
 30
0
 10
-120.119
 20
180.338
 30
0
 10
-119.743
 20
180.327
 30
0
 10
-119.419
 20
180.187
 30
0
 10
-119.325
 20
180.146
 30
0
 10
-119.24
 20
180.092
 30
0
 10
-119.165
 20
180.023
 30
0
 10
-119.099
 20
179.963
 30
0
 10
-119.051
 20
179.893
 30
0
 10
-119.018
 20
179.811
 30
0
 10
-118.991
 20
179.736
 30
0
 10
-118.985
 20
179.659
 30
0
 10
-118.999
 20
179.58
 30
0
 10
-119.018
 20
179.498
 30
0
 10
-119.054
 20
179.425
 30
0
 10
-119.11
 20
179.36
 30
0
 10
-119.173
 20
179.286
 30
0
 10
-119.248
 20
179.226
 30
0
 10
-119.335
 20
179.179
 30
0
 10
-119.436
 20
179.125
 30
0
 10
-119.54
 20
179.086
 30
0
 10
-119.646
 20
179.061
 30
0
  0
ARC
  5
A1B
330
A02
100
AcDbEntity
  8
Unfold_Sketch
100
AcDbCircle
 10
-119.991
 20
180
 30
0
 40
1
100
AcDbArc
 50
-110.185
 51
-69.8148
  0
SPLINE
  5
A1C
330
A02
100
AcDbEntity
  8
Unfold_Sketch
100
AcDbSpline
210
0
220
0
230
1
 70
8
 71
3
 72
32
 73
28
 74
0
 40
0
 40
0
 40
0
 40
0
 40
0.332568
 40
0.332568
 40
0.332568
 40
0.621481
 40
0.621481
 40
0.621481
 40
0.867775
 40
0.867775
 40
0.867775
 40
1.09952
 40
1.09952
 40
1.09952
 40
1.35661
 40
1.35661
 40
1.35661
 40
1.65927
 40
1.65927
 40
1.65927
 40
2.71465
 40
2.71465
 40
2.71465
 40
3.03309
 40
3.03309
 40
3.03309
 40
3.54213
 40
3.54213
 40
3.54213
 40
3.54213
 10
-119.646
 20
179.061
 30
0
 10
-119.54
 20
179.086
 30
0
 10
-119.436
 20
179.125
 30
0
 10
-119.335
 20
179.179
 30
0
 10
-119.248
 20
179.226
 30
0
 10
-119.173
 20
179.286
 30
0
 10
-119.11
 20
179.36
 30
0
 10
-119.054
 20
179.425
 30
0
 10
-119.018
 20
179.498
 30
0
 10
-118.999
 20
179.58
 30
0
 10
-118.985
 20
179.659
 30
0
 10
-118.991
 20
179.736
 30
0
 10
-119.018
 20
179.811
 30
0
 10
-119.051
 20
179.893
 30
0
 10
-119.099
 20
179.963
 30
0
 10
-119.165
 20
180.023
 30
0
 10
-119.24
 20
180.092
 30
0
 10
-119.325
 20
180.146
 30
0
 10
-119.419
 20
180.187
 30
0
 10
-119.743
 20
180.327
 30
0
 10
-120.119
 20
180.338
 30
0
 10
-120.453
 20
180.23
 30
0
 10
-120.555
 20
180.197
 30
0
 10
-120.65
 20
180.149
 30
0
 10
-120.738
 20
180.087
 30
0
 10
-120.878
 20
179.986
 30
0
 10
-120.989
 20
179.843
 30
0
 10
-120.991
 20
179.662
 30
0
  0
SPLINE
  5
A1D
330
A02
100
AcDbEntity
  8
Unfold_Sketch
100
AcDbSpline
210
0
220
0
230
1
 70
8
 71
3
 72
11
 73
7
 74
0
 40
0
 40
0
 40
0
 40
0
 40
0.454553
 40
0.454553
 40
0.454553
 40
0.955065
 40
0.955065
 40
0.955065
 40
0.955065
 10
-10.3916
 20
179.061
 30
0
 10
-10.5388
 20
179.096
 30
0
 10
-10.6823
 20
179.154
 30
0
 10
-10.8044
 20
179.245
 30
0
 10
-10.9374
 20
179.341
 30
0
 10
-11.0473
 20
179.492
 30
0
 10
-11.0466
 20
179.662
 30
0
  0
SPLINE
  5
A1E
330
A02
100
AcDbEntity
  8
Unfold_Sketch
100
AcDbSpline
210
0
220
0
230
1
 70
8
 71
3
 72
32
 73
28
 74
0
 40
0
 40
0
 40
0
 40
0
 40
0.509037
 40
0.509037
 40
0.509037
 40
0.827486
 40
0.827486
 40
0.827486
 40
1.88287
 40
1.88287
 40
1.88287
 40
2.18552
 40
2.18552
 40
2.18552
 40
2.44262
 40
2.44262
 40
2.44262
 40
2.67435
 40
2.67435
 40
2.67435
 40
2.92065
 40
2.92065
 40
2.92065
 40
3.20956
 40
3.20956
 40
3.20956
 40
3.54213
 40
3.54213
 40
3.54213
 40
3.54213
 10
-11.0466
 20
179.662
 30
0
 10
-11.0444
 20
179.843
 30
0
 10
-10.9337
 20
179.986
 30
0
 10
-10.794
 20
180.087
 30
0
 10
-10.706
 20
180.149
 30
0
 10
-10.611
 20
180.197
 30
0
 10
-10.5091
 20
180.23
 30
0
 10
-10.1743
 20
180.338
 30
0
 10
-9.79839
 20
180.327
 30
0
 10
-9.47434
 20
180.187
 30
0
 10
-9.3805
 20
180.146
 30
0
 10
-9.2958
 20
180.092
 30
0
 10
-9.22025
 20
180.023
 30
0
 10
-9.15486
 20
179.963
 30
0
 10
-9.10612
 20
179.893
 30
0
 10
-9.07405
 20
179.811
 30
0
 10
-9.04673
 20
179.736
 30
0
 10
-9.04032
 20
179.659
 30
0
 10
-9.05483
 20
179.58
 30
0
 10
-9.07317
 20
179.498
 30
0
 10
-9.10993
 20
179.425
 30
0
 10
-9.16512
 20
179.36
 30
0
 10
-9.22838
 20
179.286
 30
0
 10
-9.30351
 20
179.226
 30
0
 10
-9.39049
 20
179.179
 30
0
 10
-9.49196
 20
179.125
 30
0
 10
-9.59564
 20
179.086
 30
0
 10
-9.70154
 20
179.061
 30
0
  0
ARC
  5
A1F
330
A02
100
AcDbEntity
  8
Unfold_Sketch
100
AcDbCircle
 10
-10.0466
 20
180
 30
0
 40
1
100
AcDbArc
 50
-110.185
 51
-69.8148
  0
SPLINE
  5
A20
330
A02
100
AcDbEntity
  8
Unfold_Sketch
100
AcDbSpline
210
0
220
0
230
1
 70
8
 71
3
 72
32
 73
28
 74
0
 40
0
 40
0
 40
0
 40
0
 40
0.332568
 40
0.332568
 40
0.332568
 40
0.621481
 40
0.621481
 40
0.621481
 40
0.867775
 40
0.867775
 40
0.867775
 40
1.09952
 40
1.09952
 40
1.09952
 40
1.35661
 40
1.35661
 40
1.35661
 40
1.65927
 40
1.65927
 40
1.65927
 40
2.71465
 40
2.71465
 40
2.71465
 40
3.03309
 40
3.03309
 40
3.03309
 40
3.54213
 40
3.54213
 40
3.54213
 40
3.54213
 10
-9.70154
 20
179.061
 30
0
 10
-9.59564
 20
179.086
 30
0
 10
-9.49196
 20
179.125
 30
0
 10
-9.39049
 20
179.179
 30
0
 10
-9.30351
 20
179.226
 30
0
 10
-9.22838
 20
179.286
 30
0
 10
-9.16511
 20
179.36
 30
0
 10
-9.10993
 20
179.425
 30
0
 10
-9.07317
 20
179.498
 30
0
 10
-9.05483
 20
179.58
 30
0
 10
-9.04032
 20
179.659
 30
0
 10
-9.04673
 20
179.736
 30
0
 10
-9.07405
 20
179.811
 30
0
 10
-9.10612
 20
179.893
 30
0
 10
-9.15486
 20
179.963
 30
0
 10
-9.22024
 20
180.023
 30
0
 10
-9.2958
 20
180.092
 30
0
 10
-9.3805
 20
180.146
 30
0
 10
-9.47434
 20
180.187
 30
0
 10
-9.79839
 20
180.327
 30
0
 10
-10.1743
 20
180.338
 30
0
 10
-10.5091
 20
180.23
 30
0
 10
-10.611
 20
180.197
 30
0
 10
-10.706
 20
180.149
 30
0
 10
-10.794
 20
180.087
 30
0
 10
-10.9337
 20
179.986
 30
0
 10
-11.0444
 20
179.843
 30
0
 10
-11.0466
 20
179.662
 30
0
  0
CIRCLE
  5
A21
330
A02
100
AcDbEntity
  8
Unfold_Sketch
100
AcDbCircle
 10
-54
 20
97
 40
2
  0
CIRCLE
  5
A22
330
A02
100
AcDbEntity
  8
Unfold_Sketch
100
AcDbCircle
 10
-126
 20
97
 40
2
  0
CIRCLE
  5
A23
330
A02
100
AcDbEntity
  8
Unfold_Sketch
100
AcDbCircle
 10
-54
 20
167
 40
2
  0
CIRCLE
  5
A24
330
A02
100
AcDbEntity
  8
Unfold_Sketch
100
AcDbCircle
 10
-126
 20
167
 40
2
  0
CIRCLE
  5
A25
330
A02
100
AcDbEntity
  8
Unfold_Sketch
100
AcDbCircle
 10
-20.08
 20
103.38
 40
1.5
  0
CIRCLE
  5
A26
330
A02
100
AcDbEntity
  8
Unfold_Sketch
100
AcDbCircle
 10
-20.08
 20
114.82
 40
1.5
  0
CIRCLE
  5
A27
330
A02
100
AcDbEntity
  8
Unfold_Sketch
100
AcDbCircle
 10
-20.08
 20
126.26
 40
1.5
  0
CIRCLE
  5
A28
330
A02
100
AcDbEntity
  8
Unfold_Sketch
100
AcDbCircle
 10
-20.08
 20
137.7
 40
1.5
  0
CIRCLE
  5
A29
330
A02
100
AcDbEntity
  8
Unfold_Sketch
100
AcDbCircle
 10
-20.08
 20
149.14
 40
1.5
  0
CIRCLE
  5
A2A
330
A02
100
AcDbEntity
  8
Unfold_Sketch
100
AcDbCircle
 10
-20.08
 20
160.58
 40
1.5
  0
SPLINE
  5
A2B
330
A02
100
AcDbEntity
  8
Unfold_Sketch
100
AcDbSpline
210
0
220
0
230
1
 70
8
 71
3
 72
32
 73
28
 74
0
 40
0
 40
0
 40
0
 40
0
 40
0.412463
 40
0.412463
 40
0.412463
 40
0.766871
 40
0.766871
 40
0.766871
 40
1.08943
 40
1.08943
 40
1.08943
 40
1.42834
 40
1.42834
 40
1.42834
 40
1.81992
 40
1.81992
 40
1.81992
 40
2.27008
 40
2.27008
 40
2.27008
 40
3.74425
 40
3.74425
 40
3.74425
 40
4.17621
 40
4.17621
 40
4.17621
 40
4.87661
 40
4.87661
 40
4.87661
 40
4.87661
 10
-118.958
 20
85.1748
 30
0
 10
-118.839
 20
85.1181
 30
0
 10
-118.721
 20
85.0355
 30
0
 10
-118.622
 20
84.9353
 30
0
 10
-118.535
 20
84.8492
 30
0
 10
-118.471
 20
84.7502
 30
0
 10
-118.429
 20
84.6382
 30
0
 10
-118.392
 20
84.5336
 30
0
 10
-118.383
 20
84.4265
 30
0
 10
-118.4
 20
84.317
 30
0
 10
-118.422
 20
84.2035
 30
0
 10
-118.468
 20
84.1004
 30
0
 10
-118.538
 20
84.0077
 30
0
 10
-118.619
 20
83.9027
 30
0
 10
-118.716
 20
83.8151
 30
0
 10
-118.829
 20
83.745
 30
0
 10
-118.957
 20
83.6643
 30
0
 10
-119.094
 20
83.6022
 30
0
 10
-119.239
 20
83.5584
 30
0
 10
-119.709
 20
83.4168
 30
0
 10
-120.229
 20
83.4303
 30
0
 10
-120.688
 20
83.6098
 30
0
 10
-120.824
 20
83.6624
 30
0
 10
-120.949
 20
83.7339
 30
0
 10
-121.063
 20
83.8241
 30
0
 10
-121.248
 20
83.9725
 30
0
 10
-121.389
 20
84.176
 30
0
 10
-121.391
 20
84.4229
 30
0
  0
SPLINE
  5
A2C
330
A02
100
AcDbEntity
  8
Unfold_Sketch
100
AcDbSpline
210
0
220
0
230
1
 70
8
 71
3
 72
32
 73
28
 74
0
 40
0
 40
0
 40
0
 40
0
 40
0.412463
 40
0.412463
 40
0.412463
 40
0.766871
 40
0.766871
 40
0.766871
 40
1.08943
 40
1.08943
 40
1.08943
 40
1.42834
 40
1.42834
 40
1.42834
 40
1.81992
 40
1.81992
 40
1.81992
 40
2.27008
 40
2.27008
 40
2.27008
 40
3.74425
 40
3.74425
 40
3.74425
 40
4.17621
 40
4.17621
 40
4.17621
 40
4.87661
 40
4.87661
 40
4.87661
 40
4.87661
 10
-118.958
 20
85.1748
 30
0
 10
-118.839
 20
85.1181
 30
0
 10
-118.721
 20
85.0355
 30
0
 10
-118.622
 20
84.9353
 30
0
 10
-118.535
 20
84.8492
 30
0
 10
-118.471
 20
84.7502
 30
0
 10
-118.429
 20
84.6382
 30
0
 10
-118.392
 20
84.5336
 30
0
 10
-118.383
 20
84.4265
 30
0
 10
-118.4
 20
84.317
 30
0
 10
-118.422
 20
84.2035
 30
0
 10
-118.468
 20
84.1004
 30
0
 10
-118.538
 20
84.0077
 30
0
 10
-118.619
 20
83.9027
 30
0
 10
-118.716
 20
83.8151
 30
0
 10
-118.829
 20
83.745
 30
0
 10
-118.957
 20
83.6643
 30
0
 10
-119.094
 20
83.6022
 30
0
 10
-119.239
 20
83.5584
 30
0
 10
-119.709
 20
83.4168
 30
0
 10
-120.229
 20
83.4303
 30
0
 10
-120.688
 20
83.6098
 30
0
 10
-120.824
 20
83.6624
 30
0
 10
-120.949
 20
83.7339
 30
0
 10
-121.063
 20
83.8241
 30
0
 10
-121.248
 20
83.9725
 30
0
 10
-121.389
 20
84.176
 30
0
 10
-121.391
 20
84.4229
 30
0
  0
SPLINE
  5
A2D
330
A02
100
AcDbEntity
  8
Unfold_Sketch
100
AcDbSpline
210
0
220
0
230
1
 70
8
 71
3
 72
32
 73
28
 74
0
 40
0
 40
0
 40
0
 40
0
 40
0.700387
 40
0.700387
 40
0.700387
 40
1.13236
 40
1.13236
 40
1.13236
 40
2.60652
 40
2.60652
 40
2.60652
 40
3.0567
 40
3.0567
 40
3.0567
 40
3.44827
 40
3.44827
 40
3.44827
 40
3.78716
 40
3.78716
 40
3.78716
 40
4.10975
 40
4.10975
 40
4.10975
 40
4.46414
 40
4.46414
 40
4.46414
 40
4.8766
 40
4.8766
 40
4.8766
 40
4.8766
 10
-121.391
 20
84.4229
 30
0
 10
-121.389
 20
84.176
 30
0
 10
-121.248
 20
83.9725
 30
0
 10
-121.063
 20
83.8241
 30
0
 10
-120.949
 20
83.7339
 30
0
 10
-120.824
 20
83.6624
 30
0
 10
-120.688
 20
83.6098
 30
0
 10
-120.229
 20
83.4303
 30
0
 10
-119.709
 20
83.4168
 30
0
 10
-119.239
 20
83.5584
 30
0
 10
-119.094
 20
83.6022
 30
0
 10
-118.957
 20
83.6643
 30
0
 10
-118.829
 20
83.745
 30
0
 10
-118.716
 20
83.8151
 30
0
 10
-118.619
 20
83.9027
 30
0
 10
-118.538
 20
84.0077
 30
0
 10
-118.468
 20
84.1004
 30
0
 10
-118.422
 20
84.2035
 30
0
 10
-118.4
 20
84.317
 30
0
 10
-118.383
 20
84.4265
 30
0
 10
-118.392
 20
84.5336
 30
0
 10
-118.429
 20
84.6383
 30
0
 10
-118.471
 20
84.7502
 30
0
 10
-118.535
 20
84.8492
 30
0
 10
-118.622
 20
84.9353
 30
0
 10
-118.721
 20
85.0355
 30
0
 10
-118.839
 20
85.1181
 30
0
 10
-118.958
 20
85.1748
 30
0
  0
SPLINE
  5
A2E
330
A02
100
AcDbEntity
  8
Unfold_Sketch
100
AcDbSpline
210
0
220
0
230
1
 70
8
 71
3
 72
11
 73
7
 74
0
 40
0
 40
0
 40
0
 40
0
 40
0.533644
 40
0.533644
 40
0.533644
 40
0.990874
 40
0.990874
 40
0.990874
 40
0.990874
 10
-121.391
 20
84.4229
 30
0
 10
-121.392
 20
84.6025
 30
0
 10
-121.308
 20
84.7735
 30
0
 10
-121.189
 20
84.904
 30
0
 10
-121.084
 20
85.0163
 30
0
 10
-120.962
 20
85.1066
 30
0
 10
-120.823
 20
85.1748
 30
0
  0
SPLINE
  5
A2F
330
A02
100
AcDbEntity
  8
Unfold_Sketch
100
AcDbSpline
210
0
220
0
230
1
 70
8
 71
3
 72
32
 73
28
 74
0
 40
0
 40
0
 40
0
 40
0
 40
0.412463
 40
0.412463
 40
0.412463
 40
0.766871
 40
0.766871
 40
0.766871
 40
1.08943
 40
1.08943
 40
1.08943
 40
1.42834
 40
1.42834
 40
1.42834
 40
1.81992
 40
1.81992
 40
1.81992
 40
2.27008
 40
2.27008
 40
2.27008
 40
3.74425
 40
3.74425
 40
3.74425
 40
4.17621
 40
4.17621
 40
4.17621
 40
4.87661
 40
4.87661
 40
4.87661
 40
4.87661
 10
-9.11454
 20
85.1748
 30
0
 10
-8.99558
 20
85.1181
 30
0
 10
-8.87697
 20
85.0355
 30
0
 10
-8.77872
 20
84.9353
 30
0
 10
-8.69183
 20
84.8492
 30
0
 10
-8.62739
 20
84.7502
 30
0
 10
-8.58542
 20
84.6382
 30
0
 10
-8.54873
 20
84.5336
 30
0
 10
-8.53904
 20
84.4265
 30
0
 10
-8.55636
 20
84.317
 30
0
 10
-8.57793
 20
84.2035
 30
0
 10
-8.62408
 20
84.1004
 30
0
 10
-8.6948
 20
84.0077
 30
0
 10
-8.77577
 20
83.9027
 30
0
 10
-8.87257
 20
83.8151
 30
0
 10
-8.98519
 20
83.745
 30
0
 10
-9.11335
 20
83.6643
 30
0
 10
-9.24991
 20
83.6022
 30
0
 10
-9.3949
 20
83.5584
 30
0
 10
-9.86574
 20
83.4168
 30
0
 10
-10.3856
 20
83.4303
 30
0
 10
-10.8446
 20
83.6098
 30
0
 10
-10.98
 20
83.6624
 30
0
 10
-11.105
 20
83.7339
 30
0
 10
-11.2196
 20
83.8241
 30
0
 10
-11.4039
 20
83.9725
 30
0
 10
-11.5459
 20
84.176
 30
0
 10
-11.5472
 20
84.4229
 30
0
  0
SPLINE
  5
A30
330
A02
100
AcDbEntity
  8
Unfold_Sketch
100
AcDbSpline
210
0
220
0
230
1
 70
8
 71
3
 72
32
 73
28
 74
0
 40
0
 40
0
 40
0
 40
0
 40
0.412463
 40
0.412463
 40
0.412463
 40
0.766871
 40
0.766871
 40
0.766871
 40
1.08943
 40
1.08943
 40
1.08943
 40
1.42834
 40
1.42834
 40
1.42834
 40
1.81992
 40
1.81992
 40
1.81992
 40
2.27008
 40
2.27008
 40
2.27008
 40
3.74425
 40
3.74425
 40
3.74425
 40
4.17621
 40
4.17621
 40
4.17621
 40
4.87661
 40
4.87661
 40
4.87661
 40
4.87661
 10
-9.11454
 20
85.1748
 30
0
 10
-8.99558
 20
85.1181
 30
0
 10
-8.87697
 20
85.0355
 30
0
 10
-8.77872
 20
84.9353
 30
0
 10
-8.69183
 20
84.8492
 30
0
 10
-8.62739
 20
84.7502
 30
0
 10
-8.58542
 20
84.6382
 30
0
 10
-8.54873
 20
84.5336
 30
0
 10
-8.53904
 20
84.4265
 30
0
 10
-8.55636
 20
84.317
 30
0
 10
-8.57793
 20
84.2035
 30
0
 10
-8.62408
 20
84.1004
 30
0
 10
-8.6948
 20
84.0077
 30
0
 10
-8.77577
 20
83.9027
 30
0
 10
-8.87257
 20
83.8151
 30
0
 10
-8.98519
 20
83.745
 30
0
 10
-9.11335
 20
83.6643
 30
0
 10
-9.24991
 20
83.6022
 30
0
 10
-9.3949
 20
83.5584
 30
0
 10
-9.86574
 20
83.4168
 30
0
 10
-10.3856
 20
83.4303
 30
0
 10
-10.8446
 20
83.6098
 30
0
 10
-10.98
 20
83.6624
 30
0
 10
-11.105
 20
83.7339
 30
0
 10
-11.2196
 20
83.8241
 30
0
 10
-11.4039
 20
83.9725
 30
0
 10
-11.5459
 20
84.176
 30
0
 10
-11.5472
 20
84.4229
 30
0
  0
SPLINE
  5
A31
330
A02
100
AcDbEntity
  8
Unfold_Sketch
100
AcDbSpline
210
0
220
0
230
1
 70
8
 71
3
 72
32
 73
28
 74
0
 40
0
 40
0
 40
0
 40
0
 40
0.700387
 40
0.700387
 40
0.700387
 40
1.13236
 40
1.13236
 40
1.13236
 40
2.60652
 40
2.60652
 40
2.60652
 40
3.0567
 40
3.0567
 40
3.0567
 40
3.44827
 40
3.44827
 40
3.44827
 40
3.78716
 40
3.78716
 40
3.78716
 40
4.10975
 40
4.10975
 40
4.10975
 40
4.46414
 40
4.46414
 40
4.46414
 40
4.8766
 40
4.8766
 40
4.8766
 40
4.8766
 10
-11.5472
 20
84.4229
 30
0
 10
-11.5459
 20
84.176
 30
0
 10
-11.4039
 20
83.9725
 30
0
 10
-11.2196
 20
83.8241
 30
0
 10
-11.105
 20
83.7339
 30
0
 10
-10.98
 20
83.6624
 30
0
 10
-10.8446
 20
83.6098
 30
0
 10
-10.3856
 20
83.4303
 30
0
 10
-9.86574
 20
83.4168
 30
0
 10
-9.3949
 20
83.5584
 30
0
 10
-9.24991
 20
83.6022
 30
0
 10
-9.11334
 20
83.6643
 30
0
 10
-8.98519
 20
83.745
 30
0
 10
-8.87257
 20
83.8151
 30
0
 10
-8.77577
 20
83.9027
 30
0
 10
-8.6948
 20
84.0077
 30
0
 10
-8.62408
 20
84.1004
 30
0
 10
-8.57793
 20
84.2035
 30
0
 10
-8.55636
 20
84.317
 30
0
 10
-8.53903
 20
84.4265
 30
0
 10
-8.54872
 20
84.5336
 30
0
 10
-8.58542
 20
84.6383
 30
0
 10
-8.62739
 20
84.7502
 30
0
 10
-8.69183
 20
84.8492
 30
0
 10
-8.77872
 20
84.9353
 30
0
 10
-8.87697
 20
85.0355
 30
0
 10
-8.99559
 20
85.1181
 30
0
 10
-9.11454
 20
85.1748
 30
0
  0
SPLINE
  5
A32
330
A02
100
AcDbEntity
  8
Unfold_Sketch
100
AcDbSpline
210
0
220
0
230
1
 70
8
 71
3
 72
11
 73
7
 74
0
 40
0
 40
0
 40
0
 40
0
 40
0.533644
 40
0.533644
 40
0.533644
 40
0.990874
 40
0.990874
 40
0.990874
 40
0.990874
 10
-11.5472
 20
84.4229
 30
0
 10
-11.5482
 20
84.6025
 30
0
 10
-11.4649
 20
84.7735
 30
0
 10
-11.3453
 20
84.904
 30
0
 10
-11.24
 20
85.0163
 30
0
 10
-11.1182
 20
85.1066
 30
0
 10
-10.9799
 20
85.1748
 30
0
  0
LINE
  5
A33
330
A02
100
AcDbEntity
  8
Unfold_Sketch
100
AcDbLine
 10
-130
 20
180.318
 30
0
 11
0
 21
180.318
 31
0
  0
LINE
  5
A34
330
A02
100
AcDbEntity
  8
Unfold_Sketch
100
AcDbLine
 10
0
 20
83.9182
 30
0
 11
-8.7713
 21
83.9182
 31
0
  0
LINE
  5
A35
330
A02
100
AcDbEntity
  8
Unfold_Sketch
100
AcDbLine
 10
-11.3231
 20
83.9182
 30
0
 11
-118.615
 21
83.9182
 31
0
  0
LINE
  5
A36
330
A02
100
AcDbEntity
  8
Unfold_Sketch
100
AcDbLine
 10
-121.167
 20
83.9182
 30
0
 11
-130
 21
83.9182
 31
0
  0
ENDSEC
  0
SECTION
  2
OBJECTS
  0
DICTIONARY
  5
F000
330
0
100
AcDbDictionary
  3
ACAD_GROUP
350
F001
  0
DICTIONARY
  5
F001
330
F000
100
AcDbDictionary
  0
ENDSEC
  0
EOF