999
FreeCAD v0.20 29410 (Git)
  0
SECTION
  2
HEADER
  9
$ACADVER
  1
AC1014
  9
$ACADMAINTVER
 70
     9
  9
$DWGCODEPAGE
  3
ANSI_1252
  9
$TEXTSTYLE
  7
STANDARD
  9
$DIMSTYLE
  2
STANDARD
  9
$DIMTXSTY
  7
STANDARD
  9
$CMLSTYLE
  2
STANDARD
  9
$LUNITS
 70
2
  9
$INSUNITS
 70
4
  9
$PEXTMAX
 10
50
 20
50
 30
50
  9
$PEXTMIN
 10
0
 20
0
 30
0
  9
$HANDSEED
  5
FFFF
  0
ENDSEC
  0
SECTION
  2
CLASSES
  0
CLASS
  1
ACDBDICTIONARYWDFLT
  2
AcDbDictionaryWithDefault
  3
ObjectDBX Classes
 90
        0
280
     0
281
     0
  0
CLASS
  1
XRECORD
  2
AcDbXrecord
  3
ObjectDBX Classes
 90
        0
280
     0
281
     0
  0
CLASS
  1
LWPOLYLINE
  2
AcDbPolyline
  3
ObjectDBX Classes
 90
        0
280
     0
281
     1
  0
ENDSEC
  0
SECTION
  2
TABLES
  0
TABLE
  2
VPORT
  5
20
330
0
100
AcDbSymbolTable
 70
     1
  0
VPORT
  5
21
330
20
100
AcDbSymbolTableRecord
100
AcDbViewportTableRecord
  2
*ACTIVE
 70
     0
  0
ENDTAB
  0
TABLE
  2
LTYPE
  5
22
330
0
100
AcDbSymbolTable
 70
     1
  0
LTYPE
  5
23
330
21
100
AcDbSymbolTableRecord
100
AcDbLinetypeTableRecord
  2
BYBLOCK
 70
     0
  3

 72
    65
 73
     0
 40
0.0
  0
LTYPE
  5
24
330
21
100
AcDbSymbolTableRecord
100
AcDbLinetypeTableRecord
  2
BYLAYER
 70
     0
  3

 72
    65
 73
     0
 40
0.0
  0
LTYPE
  5
25
330
21
100
AcDbSymbolTableRecord
100
AcDbLinetypeTableRecord
  2
CONTINUOUS
 70
     0
  3
Solid line
 72
    65
 73
     0
 40
0.0
  0
ENDTAB
  0
TABLE
  2
LAYER
  5
A81
330
0
100
AcDbSymbolTable
 70
13
  0
LAYER
  5
A82
330
A81
100
AcDbSymbolTableRecord
100
AcDbLayerTableRecord
  2
0
 70
   0
 62
   7
  6
CONTINUOUS
  0
LAYER
  5
A83
330
A81
100
AcDbSymbolTableRecord
100
AcDbLayerTableRecord
  2
View002
 70
    0
 62
    7
  6
CONTINUOUS
  0
LAYER
  5
A84
330
A81
100
AcDbSymbolTableRecord
100
AcDbLayerTableRecord
  2
Dimension
 70
    0
 62
    7
  6
CONTINUOUS
  0
LAYER
  5
A85
330
A81
100
AcDbSymbolTableRecord
100
AcDbLayerTableRecord
  2
Dimension001
 70
    0
 62
    7
  6
CONTINUOUS
  0
LAYER
  5
A86
330
A81
100
AcDbSymbolTableRecord
100
AcDbLayerTableRecord
  2
Dimension002
 70
    0
 62
    7
  6
CONTINUOUS
  0
LAYER
  5
A87
330
A81
100
AcDbSymbolTableRecord
100
AcDbLayerTableRecord
  2
Dimension003
 70
    0
 62
    7
  6
CONTINUOUS
  0
LAYER
  5
A88
330
A81
100
AcDbSymbolTableRecord
100
AcDbLayerTableRecord
  2
Dimension004
 70
    0
 62
    7
  6
CONTINUOUS
  0
LAYER
  5
A89
330
A81
100
AcDbSymbolTableRecord
100
AcDbLayerTableRecord
  2
Annotation
 70
    0
 62
    7
  6
CONTINUOUS
  0
LAYER
  5
A8A
330
A81
100
AcDbSymbolTableRecord
100
AcDbLayerTableRecord
  2
Dimension005
 70
    0
 62
    7
  6
CONTINUOUS
  0
LAYER
  5
A8B
330
A81
100
AcDbSymbolTableRecord
100
AcDbLayerTableRecord
  2
Dimension006
 70
    0
 62
    7
  6
CONTINUOUS
  0
LAYER
  5
A8C
330
A81
100
AcDbSymbolTableRecord
100
AcDbLayerTableRecord
  2
Dimension007
 70
    0
 62
    7
  6
CONTINUOUS
  0
LAYER
  5
A8D
330
A81
100
AcDbSymbolTableRecord
100
AcDbLayerTableRecord
  2
Dimension008
 70
    0
 62
    7
  6
CONTINUOUS
  0
LAYER
  5
A8E
330
A81
100
AcDbSymbolTableRecord
100
AcDbLayerTableRecord
  2
Dimension009
 70
    0
 62
    7
  6
CONTINUOUS
  0
ENDTAB
  0
TABLE
  2
STYLE
  5
70
330
0
100
AcDbSymbolTable
 70
     2
  0
STYLE
  5
71
330
70
100
AcDbSymbolTableRecord
100
AcDbTextStyleTableRecord
  2
STANDARD
 70
     0
 40
0.0
 41
1.0
 50
0.0
 71
     0
 42
2.5
  3
arial.ttf
  4

  0
STYLE
  5
72
330
70
100
AcDbSymbolTableRecord
100
AcDbTextStyleTableRecord
  2
ANNOTATIVE
 70
     0
 40
0.0
 41
1.0
 50
0.0
 71
     0
 42
2.5
  3
arial.ttf
  4

  0
ENDTAB
  0
TABLE
  2
VIEW
  5
73
330
0
100
AcDbSymbolTable
 70
     0
  0
ENDTAB
  0
TABLE
  2
UCS
  5
74
330
0
100
AcDbSymbolTable
 70
     0
  0
ENDTAB
  0
TABLE
  2
APPID
  5
75
330
0
100
AcDbSymbolTable
 70
     2
  0
APPID
  5
76
330
75
100
AcDbSymbolTableRecord
100
AcDbRegAppTableRecord
  2
ACAD
 70
     0
  0
APPID
  5
77
330
75
100
AcDbSymbolTableRecord
100
AcDbRegAppTableRecord
  2
ACADANNOTATIVE
 70
     0
  0
ENDTAB
  0
TABLE
  2
DIMSTYLE
  5
78
330
0
100
AcDbSymbolTable
 70
     2
  0
DIMSTYLE
105
79
330
78
100
AcDbSymbolTableRecord
100
AcDbDimStyleTableRecord
  2
STANDARD
 70
     0
  3

  4

  5

  6

  7

 40
0.0
 41
2.5
 42
0.625
 43
3.75
 44
1.25
 45
0.0
 46
0.0
 47
0.0
 48
0.0
140
2.5
141
2.5
142
0.0
143
0.03937007874016
144
1.0
145
0.0
146
1.0
147
0.625
 71
     0
 72
     0
 73
     0
 74
     0
 75
     0
 76
     0
 77
     1
 78
     8
170
     0
171
     3
172
     1
173
     0
174
     0
175
     0
176
     0
177
     0
178
     0
270
     2
271
     2
272
     2
273
     2
274
     3
340
71
275
     0
280
     0
281
     0
282
     0
283
     0
284
     8
285
     0
286
     0
287
     3
288
     0
  0
ENDTAB
  0
TABLE
  2
BLOCK_RECORD
  5
A01
330
0
100
AcDbSymbolTable
  70
5
  0
BLOCK_RECORD
  5
A02
330
A01
100
AcDbSymbolTableRecord
100
AcDbBlockTableRecord
  2
*MODEL_SPACE
  0
BLOCK_RECORD
  5
A03
330
A01
100
AcDbSymbolTableRecord
100
AcDbBlockTableRecord
  2
*PAPER_SPACE
  0
BLOCK_RECORD
  5
A1D
330
A01
100
AcDbSymbolTableRecord
100
AcDbBlockTableRecord
  2
*Dimension
  0
BLOCK_RECORD
  5
A27
330
A01
100
AcDbSymbolTableRecord
100
AcDbBlockTableRecord
  2
*Dimension001
  0
BLOCK_RECORD
  5
A31
330
A01
100
AcDbSymbolTableRecord
100
AcDbBlockTableRecord
  2
*Dimension002
  0
BLOCK_RECORD
  5
A3B
330
A01
100
AcDbSymbolTableRecord
100
AcDbBlockTableRecord
  2
*Dimension003
  0
BLOCK_RECORD
  5
A45
330
A01
100
AcDbSymbolTableRecord
100
AcDbBlockTableRecord
  2
*Dimension004
  0
BLOCK_RECORD
  5
A50
330
A01
100
AcDbSymbolTableRecord
100
AcDbBlockTableRecord
  2
*Dimension005
  0
BLOCK_RECORD
  5
A5A
330
A01
100
AcDbSymbolTableRecord
100
AcDbBlockTableRecord
  2
*Dimension006
  0
BLOCK_RECORD
  5
A64
330
A01
100
AcDbSymbolTableRecord
100
AcDbBlockTableRecord
  2
*Dimension007
  0
BLOCK_RECORD
  5
A6E
330
A01
100
AcDbSymbolTableRecord
100
AcDbBlockTableRecord
  2
*Dimension008
  0
BLOCK_RECORD
  5
A78
330
A01
100
AcDbSymbolTableRecord
100
AcDbBlockTableRecord
  2
*Dimension009
  0
ENDTAB
  0
ENDSEC
  0
SECTION
  2
BLOCKS
  0
BLOCK
  5
A04
330
A02
100
AcDbEntity
  8
0
100
AcDbBlockBegin
  2
*MODEL_SPACE
 70
   0
 10
0
 20
0
 30
0
  3
*MODEL_SPACE
  1
 
  0
ENDBLK
  5
A05
330
A02
100
AcDbEntity
  8
0
100
AcDbBlockEnd
  0
BLOCK
  5
A06
330
A03
100
AcDbEntity
 67
1
  8
0
100
AcDbBlockBegin
  2
*PAPER_SPACE
 70
   0
 10
0
 20
0
 30
0
  3
*PAPER_SPACE
  1
 
  0
ENDBLK
  5
A07
330
A03
100
AcDbEntity
 67
    1
  8
0
100
AcDbBlockEnd
  0
BLOCK
  5
A1E
330
A1D
100
AcDbEntity
  8
Dimension
100
AcDbBlockBegin
  2
*Dimension
 70
   1
 10
0
 20
0
 30
0
  3
*Dimension
  1
 
  0
LINE
  5
A1F
330
A1D
100
AcDbEntity
  8
Dimension
100
AcDbLine
 10
346.103
 20
233.885
 30
0
 11
362.999
 21
233.885
 31
0
  0
LINE
  5
A20
330
A1D
100
AcDbEntity
  8
Dimension
100
AcDbLine
 10
346.103
 20
103.885
 30
0
 11
362.999
 21
103.885
 31
0
  0
LINE
  5
A21
330
A1D
100
AcDbEntity
  8
Dimension
100
AcDbLine
 10
362.999
 20
103.885
 30
0
 11
362.999
 21
233.885
 31
0
  0
TEXT
  5
A22
330
A1D
100
AcDbEntity
  8
Dimension
100
AcDbText
 10
367.999
 20
169.825
 30
0
 40
3.5
  1
130
  7
STANDARD
 72
1
 11
362.999
 21
169.825
 31
0
100
AcDbText
  0
SOLID
  5
A23
330
A1D
100
AcDbEntity
  8
0
 62
     0
100
AcDbTrace
 10
363.416
 20
98.8848
 30
0
 11
362.582
 21
98.8848
 31
0
 12
362.999
 22
103.885
 32
0
 13
362.999
 23
103.885
 33
0
  0
SOLID
  5
A24
330
A1D
100
AcDbEntity
  8
0
 62
     0
100
AcDbTrace
 10
363.416
 20
238.885
 30
0
 11
362.582
 21
238.885
 31
0
 12
362.999
 22
233.885
 32
0
 13
362.999
 23
233.885
 33
0
  0
ENDBLK
  5
A25
330
A1D
100
AcDbEntity
  8
Dimension
100
AcDbBlockEnd
  0
BLOCK
  5
A28
330
A27
100
AcDbEntity
  8
Dimension001
100
AcDbBlockBegin
  2
*Dimension001
 70
   1
 10
0
 20
0
 30
0
  3
*Dimension001
  1
 
  0
LINE
  5
A29
330
A27
100
AcDbEntity
  8
Dimension001
100
AcDbLine
 10
346.103
 20
233.885
 30
0
 11
346.103
 21
255.86
 31
0
  0
LINE
  5
A2A
330
A27
100
AcDbEntity
  8
Dimension001
100
AcDbLine
 10
86.1027
 20
233.885
 30
0
 11
86.1027
 21
255.86
 31
0
  0
LINE
  5
A2B
330
A27
100
AcDbEntity
  8
Dimension001
100
AcDbLine
 10
86.1027
 20
255.86
 30
0
 11
346.103
 21
255.86
 31
0
  0
TEXT
  5
A2C
330
A27
100
AcDbEntity
  8
Dimension001
100
AcDbText
 10
210.5
 20
260.86
 30
0
 40
3.5
  1
260
  7
STANDARD
 72
1
 11
210.5
 21
255.86
 31
0
100
AcDbText
  0
SOLID
  5
A2D
330
A27
100
AcDbEntity
  8
0
 62
     0
100
AcDbTrace
 10
81.1027
 20
256.277
 30
0
 11
81.1027
 21
255.443
 31
0
 12
86.1027
 22
255.86
 32
0
 13
86.1027
 23
255.86
 33
0
  0
SOLID
  5
A2E
330
A27
100
AcDbEntity
  8
0
 62
     0
100
AcDbTrace
 10
351.103
 20
256.277
 30
0
 11
351.103
 21
255.443
 31
0
 12
346.103
 22
255.86
 32
0
 13
346.103
 23
255.86
 33
0
  0
ENDBLK
  5
A2F
330
A27
100
AcDbEntity
  8
Dimension001
100
AcDbBlockEnd
  0
BLOCK
  5
A32
330
A31
100
AcDbEntity
  8
Dimension002
100
AcDbBlockBegin
  2
*Dimension002
 70
   1
 10
0
 20
0
 30
0
  3
*Dimension002
  1
 
  0
LINE
  5
A33
330
A31
100
AcDbEntity
  8
Dimension002
100
AcDbLine
 10
346.103
 20
233.885
 30
0
 11
351.188
 21
233.885
 31
0
  0
LINE
  5
A34
330
A31
100
AcDbEntity
  8
Dimension002
100
AcDbLine
 10
306.103
 20
218.885
 30
0
 11
351.188
 21
218.885
 31
0
  0
LINE
  5
A35
330
A31
100
AcDbEntity
  8
Dimension002
100
AcDbLine
 10
351.188
 20
218.885
 30
0
 11
351.188
 21
233.885
 31
0
  0
TEXT
  5
A36
330
A31
100
AcDbEntity
  8
Dimension002
100
AcDbText
 10
352.943
 20
230.151
 30
0
 40
3.5
  1
15
  7
STANDARD
 72
1
 11
351.188
 21
225.469
 31
0
100
AcDbText
  0
SOLID
  5
A37
330
A31
100
AcDbEntity
  8
0
 62
     0
100
AcDbTrace
 10
351.605
 20
213.885
 30
0
 11
350.771
 21
213.885
 31
0
 12
351.188
 22
218.885
 32
0
 13
351.188
 23
218.885
 33
0
  0
SOLID
  5
A38
330
A31
100
AcDbEntity
  8
0
 62
     0
100
AcDbTrace
 10
351.605
 20
238.885
 30
0
 11
350.771
 21
238.885
 31
0
 12
351.188
 22
233.885
 32
0
 13
351.188
 23
233.885
 33
0
  0
ENDBLK
  5
A39
330
A31
100
AcDbEntity
  8
Dimension002
100
AcDbBlockEnd
  0
BLOCK
  5
A3C
330
A3B
100
AcDbEntity
  8
Dimension003
100
AcDbBlockBegin
  2
*Dimension003
 70
   1
 10
0
 20
0
 30
0
  3
*Dimension003
  1
 
  0
LINE
  5
A3D
330
A3B
100
AcDbEntity
  8
Dimension003
100
AcDbLine
 10
306.103
 20
118.885
 30
0
 11
358.074
 21
118.885
 31
0
  0
LINE
  5
A3E
330
A3B
100
AcDbEntity
  8
Dimension003
100
AcDbLine
 10
306.103
 20
218.885
 30
0
 11
358.074
 21
218.885
 31
0
  0
LINE
  5
A3F
330
A3B
100
AcDbEntity
  8
Dimension003
100
AcDbLine
 10
358.074
 20
218.885
 30
0
 11
358.074
 21
118.885
 31
0
  0
TEXT
  5
A40
330
A3B
100
AcDbEntity
  8
Dimension003
100
AcDbText
 10
353.074
 20
175.829
 30
0
 40
3.5
  1
100
  7
STANDARD
 72
1
 11
358.074
 21
175.829
 31
0
100
AcDbText
  0
SOLID
  5
A41
330
A3B
100
AcDbEntity
  8
0
 62
     0
100
AcDbTrace
 10
358.491
 20
223.885
 30
0
 11
357.657
 21
223.885
 31
0
 12
358.074
 22
218.885
 32
0
 13
358.074
 23
218.885
 33
0
  0
SOLID
  5
A42
330
A3B
100
AcDbEntity
  8
0
 62
     0
100
AcDbTrace
 10
358.491
 20
113.885
 30
0
 11
357.657
 21
113.885
 31
0
 12
358.074
 22
118.885
 32
0
 13
358.074
 23
118.885
 33
0
  0
ENDBLK
  5
A43
330
A3B
100
AcDbEntity
  8
Dimension003
100
AcDbBlockEnd
  0
BLOCK
  5
A46
330
A45
100
AcDbEntity
  8
Dimension004
100
AcDbBlockBegin
  2
*Dimension004
 70
   1
 10
0
 20
0
 30
0
  3
*Dimension004
  1
 
  0
LINE
  5
A47
330
A45
100
AcDbEntity
  8
Dimension004
100
AcDbLine
 10
346.103
 20
233.885
 30
0
 11
346.103
 21
247.556
 31
0
  0
LINE
  5
A48
330
A45
100
AcDbEntity
  8
Dimension004
100
AcDbLine
 10
306.103
 20
218.885
 30
0
 11
306.103
 21
247.556
 31
0
  0
LINE
  5
A49
330
A45
100
AcDbEntity
  8
Dimension004
100
AcDbLine
 10
306.103
 20
247.556
 30
0
 11
346.103
 21
247.556
 31
0
  0
TEXT
  5
A4A
330
A45
100
AcDbEntity
  8
Dimension004
100
AcDbText
 10
326.103
 20
252.238
 30
0
 40
3.5
  1
40
  7
STANDARD
 72
1
 11
324.347
 21
247.556
 31
0
100
AcDbText
  0
SOLID
  5
A4B
330
A45
100
AcDbEntity
  8
0
 62
     0
100
AcDbTrace
 10
301.103
 20
247.973
 30
0
 11
301.103
 21
247.139
 31
0
 12
306.103
 22
247.556
 32
0
 13
306.103
 23
247.556
 33
0
  0
SOLID
  5
A4C
330
A45
100
AcDbEntity
  8
0
 62
     0
100
AcDbTrace
 10
351.103
 20
247.973
 30
0
 11
351.103
 21
247.139
 31
0
 12
346.103
 22
247.556
 32
0
 13
346.103
 23
247.556
 33
0
  0
ENDBLK
  5
A4D
330
A45
100
AcDbEntity
  8
Dimension004
100
AcDbBlockEnd
  0
BLOCK
  5
A51
330
A50
100
AcDbEntity
  8
Dimension005
100
AcDbBlockBegin
  2
*Dimension005
 70
   1
 10
0
 20
0
 30
0
  3
*Dimension005
  1
 
  0
LINE
  5
A52
330
A50
100
AcDbEntity
  8
Dimension005
100
AcDbLine
 10
306.103
 20
218.885
 30
0
 11
306.103
 21
247.238
 31
0
  0
LINE
  5
A53
330
A50
100
AcDbEntity
  8
Dimension005
100
AcDbLine
 10
116.103
 20
218.885
 30
0
 11
116.103
 21
247.238
 31
0
  0
LINE
  5
A54
330
A50
100
AcDbEntity
  8
Dimension005
100
AcDbLine
 10
116.103
 20
247.238
 30
0
 11
306.103
 21
247.238
 31
0
  0
TEXT
  5
A55
330
A50
100
AcDbEntity
  8
Dimension005
100
AcDbText
 10
211.103
 20
252.238
 30
0
 40
3.5
  1
190
  7
STANDARD
 72
1
 11
211.103
 21
247.238
 31
0
100
AcDbText
  0
SOLID
  5
A56
330
A50
100
AcDbEntity
  8
0
 62
     0
100
AcDbTrace
 10
111.103
 20
247.654
 30
0
 11
111.103
 21
246.821
 31
0
 12
116.103
 22
247.238
 32
0
 13
116.103
 23
247.238
 33
0
  0
SOLID
  5
A57
330
A50
100
AcDbEntity
  8
0
 62
     0
100
AcDbTrace
 10
311.103
 20
247.654
 30
0
 11
311.103
 21
246.821
 31
0
 12
306.103
 22
247.238
 32
0
 13
306.103
 23
247.238
 33
0
  0
ENDBLK
  5
A58
330
A50
100
AcDbEntity
  8
Dimension005
100
AcDbBlockEnd
  0
BLOCK
  5
A5B
330
A5A
100
AcDbEntity
  8
Dimension006
100
AcDbBlockBegin
  2
*Dimension006
 70
   1
 10
0
 20
0
 30
0
  3
*Dimension006
  1
 
  0
LINE
  5
A5C
330
A5A
100
AcDbEntity
  8
Dimension006
100
AcDbLine
 10
86.1027
 20
233.885
 30
0
 11
71.6747
 21
233.885
 31
0
  0
LINE
  5
A5D
330
A5A
100
AcDbEntity
  8
Dimension006
100
AcDbLine
 10
96.1027
 20
223.885
 30
0
 11
71.6747
 21
223.885
 31
0
  0
LINE
  5
A5E
330
A5A
100
AcDbEntity
  8
Dimension006
100
AcDbLine
 10
71.6747
 20
223.885
 30
0
 11
71.6747
 21
233.885
 31
0
  0
TEXT
  5
A5F
330
A5A
100
AcDbEntity
  8
Dimension006
100
AcDbText
 10
75.2102
 20
230.532
 30
0
 40
3.5
  1
10
  7
STANDARD
 72
1
 11
71.6747
 21
234.067
 31
0
100
AcDbText
  0
SOLID
  5
A60
330
A5A
100
AcDbEntity
  8
0
 62
     0
100
AcDbTrace
 10
71.258
 20
218.885
 30
0
 11
72.0913
 21
218.885
 31
0
 12
71.6747
 22
223.885
 32
0
 13
71.6747
 23
223.885
 33
0
  0
SOLID
  5
A61
330
A5A
100
AcDbEntity
  8
0
 62
     0
100
AcDbTrace
 10
71.258
 20
238.885
 30
0
 11
72.0913
 21
238.885
 31
0
 12
71.6747
 22
233.885
 32
0
 13
71.6747
 23
233.885
 33
0
  0
ENDBLK
  5
A62
330
A5A
100
AcDbEntity
  8
Dimension006
100
AcDbBlockEnd
  0
BLOCK
  5
A65
330
A64
100
AcDbEntity
  8
Dimension007
100
AcDbBlockBegin
  2
*Dimension007
 70
   1
 10
0
 20
0
 30
0
  3
*Dimension007
  1
 
  0
LINE
  5
A66
330
A64
100
AcDbEntity
  8
Dimension007
100
AcDbLine
 10
86.1027
 20
103.885
 30
0
 11
78.5184
 21
103.885
 31
0
  0
LINE
  5
A67
330
A64
100
AcDbEntity
  8
Dimension007
100
AcDbLine
 10
96.1027
 20
113.885
 30
0
 11
78.5184
 21
113.885
 31
0
  0
LINE
  5
A68
330
A64
100
AcDbEntity
  8
Dimension007
100
AcDbLine
 10
78.5184
 20
113.885
 30
0
 11
78.5184
 21
103.885
 31
0
  0
TEXT
  5
A69
330
A64
100
AcDbEntity
  8
Dimension007
100
AcDbText
 10
74.9829
 20
110.437
 30
0
 40
3.5
  1
10
  7
STANDARD
 72
1
 11
78.5184
 21
113.973
 31
0
100
AcDbText
  0
SOLID
  5
A6A
330
A64
100
AcDbEntity
  8
0
 62
     0
100
AcDbTrace
 10
78.1018
 20
118.885
 30
0
 11
78.9351
 21
118.885
 31
0
 12
78.5184
 22
113.885
 32
0
 13
78.5184
 23
113.885
 33
0
  0
SOLID
  5
A6B
330
A64
100
AcDbEntity
  8
0
 62
     0
100
AcDbTrace
 10
78.1018
 20
98.8848
 30
0
 11
78.9351
 21
98.8848
 31
0
 12
78.5184
 22
103.885
 32
0
 13
78.5184
 23
103.885
 33
0
  0
ENDBLK
  5
A6C
330
A64
100
AcDbEntity
  8
Dimension007
100
AcDbBlockEnd
  0
BLOCK
  5
A6F
330
A6E
100
AcDbEntity
  8
Dimension008
100
AcDbBlockBegin
  2
*Dimension008
 70
   1
 10
0
 20
0
 30
0
  3
*Dimension008
  1
 
  0
LINE
  5
A70
330
A6E
100
AcDbEntity
  8
Dimension008
100
AcDbLine
 10
86.1027
 20
233.885
 30
0
 11
86.1027
 21
248.046
 31
0
  0
LINE
  5
A71
330
A6E
100
AcDbEntity
  8
Dimension008
100
AcDbLine
 10
96.1027
 20
223.885
 30
0
 11
96.1027
 21
248.046
 31
0
  0
LINE
  5
A72
330
A6E
100
AcDbEntity
  8
Dimension008
100
AcDbLine
 10
96.1027
 20
248.046
 30
0
 11
86.1027
 21
248.046
 31
0
  0
TEXT
  5
A73
330
A6E
100
AcDbEntity
  8
Dimension008
100
AcDbText
 10
91.784
 20
244.51
 30
0
 40
3.5
  1
10
  7
STANDARD
 72
1
 11
88.2485
 21
248.046
 31
0
100
AcDbText
  0
SOLID
  5
A74
330
A6E
100
AcDbEntity
  8
0
 62
     0
100
AcDbTrace
 10
101.103
 20
248.462
 30
0
 11
101.103
 21
247.629
 31
0
 12
96.1027
 22
248.046
 32
0
 13
96.1027
 23
248.046
 33
0
  0
SOLID
  5
A75
330
A6E
100
AcDbEntity
  8
0
 62
     0
100
AcDbTrace
 10
81.1027
 20
248.462
 30
0
 11
81.1027
 21
247.629
 31
0
 12
86.1027
 22
248.046
 32
0
 13
86.1027
 23
248.046
 33
0
  0
ENDBLK
  5
A76
330
A6E
100
AcDbEntity
  8
Dimension008
100
AcDbBlockEnd
  0
BLOCK
  5
A79
330
A78
100
AcDbEntity
  8
Dimension009
100
AcDbBlockBegin
  2
*Dimension009
 70
   1
 10
0
 20
0
 30
0
  3
*Dimension009
  1
 
  0
LINE
  5
A7A
330
A78
100
AcDbEntity
  8
Dimension009
100
AcDbLine
 10
346.103
 20
233.885
 30
0
 11
346.103
 21
240.514
 31
0
  0
LINE
  5
A7B
330
A78
100
AcDbEntity
  8
Dimension009
100
AcDbLine
 10
336.103
 20
223.885
 30
0
 11
336.103
 21
240.514
 31
0
  0
LINE
  5
A7C
330
A78
100
AcDbEntity
  8
Dimension009
100
AcDbLine
 10
336.103
 20
240.514
 30
0
 11
346.103
 21
240.514
 31
0
  0
TEXT
  5
A7D
330
A78
100
AcDbEntity
  8
Dimension009
100
AcDbText
 10
341.64
 20
244.049
 30
0
 40
3.5
  1
10
  7
STANDARD
 72
1
 11
338.105
 21
240.514
 31
0
100
AcDbText
  0
SOLID
  5
A7E
330
A78
100
AcDbEntity
  8
0
 62
     0
100
AcDbTrace
 10
331.103
 20
240.931
 30
0
 11
331.103
 21
240.097
 31
0
 12
336.103
 22
240.514
 32
0
 13
336.103
 23
240.514
 33
0
  0
SOLID
  5
A7F
330
A78
100
AcDbEntity
  8
0
 62
     0
100
AcDbTrace
 10
351.103
 20
240.931
 30
0
 11
351.103
 21
240.097
 31
0
 12
346.103
 22
240.514
 32
0
 13
346.103
 23
240.514
 33
0
  0
ENDBLK
  5
A80
330
A78
100
AcDbEntity
  8
Dimension009
100
AcDbBlockEnd
  0
ENDSEC
  0
SECTION
  2
ENTITIES
  0
CIRCLE
  5
A08
330
A02
100
AcDbEntity
  8
View002
100
AcDbCircle
 10
306.103
 20
218.885
 40
3
  0
CIRCLE
  5
A09
330
A02
100
AcDbEntity
  8
View002
100
AcDbCircle
 10
306.103
 20
118.885
 40
3
  0
CIRCLE
  5
A0A
330
A02
100
AcDbEntity
  8
View002
100
AcDbCircle
 10
116.103
 20
218.885
 40
3
  0
CIRCLE
  5
A0B
330
A02
100
AcDbEntity
  8
View002
100
AcDbCircle
 10
116.103
 20
118.885
 40
3
  0
LINE
  5
A0C
330
A02
100
AcDbEntity
  8
View002
100
AcDbLine
 10
346.103
 20
233.885
 30
0
 11
346.103
 21
103.885
 31
0
  0
LINE
  5
A0D
330
A02
100
AcDbEntity
  8
View002
100
AcDbLine
 10
346.103
 20
103.885
 30
0
 11
86.1027
 21
103.885
 31
0
  0
LINE
  5
A0E
330
A02
100
AcDbEntity
  8
View002
100
AcDbLine
 10
86.1027
 20
103.885
 30
0
 11
86.1027
 21
233.885
 31
0
  0
LINE
  5
A0F
330
A02
100
AcDbEntity
  8
View002
100
AcDbLine
 10
86.1027
 20
233.885
 30
0
 11
346.103
 21
233.885
 31
0
  0
CIRCLE
  5
A10
330
A02
100
AcDbEntity
  8
View002
100
AcDbCircle
 10
336.103
 20
223.885
 40
3
  0
CIRCLE
  5
A11
330
A02
100
AcDbEntity
  8
View002
100
AcDbCircle
 10
336.103
 20
113.885
 40
3
  0
CIRCLE
  5
A12
330
A02
100
AcDbEntity
  8
View002
100
AcDbCircle
 10
96.1027
 20
223.885
 40
3
  0
CIRCLE
  5
A13
330
A02
100
AcDbEntity
  8
View002
100
AcDbCircle
 10
96.1027
 20
113.885
 40
3
  0
LINE
  5
A14
330
A02
100
AcDbEntity
  8
View002
100
AcDbLine
 10
306.103
 20
218.885
 30
0
 11
306.103
 21
118.885
 31
0
  0
LINE
  5
A15
330
A02
100
AcDbEntity
  8
View002
100
AcDbLine
 10
116.103
 20
218.885
 30
0
 11
116.103
 21
118.885
 31
0
  0
LINE
  5
A16
330
A02
100
AcDbEntity
  8
View002
100
AcDbLine
 10
116.103
 20
218.885
 30
0
 11
306.103
 21
218.885
 31
0
  0
LINE
  5
A17
330
A02
100
AcDbEntity
  8
View002
100
AcDbLine
 10
116.103
 20
118.885
 30
0
 11
306.103
 21
118.885
 31
0
  0
LINE
  5
A18
330
A02
100
AcDbEntity
  8
View002
100
AcDbLine
 10
96.1027
 20
223.885
 30
0
 11
96.1027
 21
113.885
 31
0
  0
LINE
  5
A19
330
A02
100
AcDbEntity
  8
View002
100
AcDbLine
 10
96.1027
 20
223.885
 30
0
 11
336.103
 21
223.885
 31
0
  0
LINE
  5
A1A
330
A02
100
AcDbEntity
  8
View002
100
AcDbLine
 10
336.103
 20
113.885
 30
0
 11
96.1027
 21
113.885
 31
0
  0
LINE
  5
A1B
330
A02
100
AcDbEntity
  8
View002
100
AcDbLine
 10
336.103
 20
113.885
 30
0
 11
336.103
 21
223.885
 31
0
  0
DIMENSION
  5
A1C
330
A02
100
AcDbEntity
  8
Dimension
100
AcDbDimension
  2
*Dimension
 10
362.999
 20
169.825
 30
0
 11
367.999
 21
169.825
 31
0
 70
32
  1
130
  3
STANDARD
100
AcDbAlignedDimension
 13
346.103
 23
103.885
 33
0
 14
346.103
 24
233.885
 34
0
 50
90
100
AcDbRotatedDimension
  0
DIMENSION
  5
A26
330
A02
100
AcDbEntity
  8
Dimension001
100
AcDbDimension
  2
*Dimension001
 10
210.5
 20
255.86
 30
0
 11
210.5
 21
260.86
 31
0
 70
32
  1
260
  3
STANDARD
100
AcDbAlignedDimension
 13
86.1027
 23
233.885
 33
0
 14
346.103
 24
233.885
 34
0
100
AcDbRotatedDimension
  0
DIMENSION
  5
A30
330
A02
100
AcDbEntity
  8
Dimension002
100
AcDbDimension
  2
*Dimension002
 10
351.188
 20
225.469
 30
0
 11
352.943
 21
230.151
 31
0
 70
32
  1
15
  3
STANDARD
100
AcDbAlignedDimension
 13
306.103
 23
218.885
 33
0
 14
346.103
 24
233.885
 34
0
 50
90
100
AcDbRotatedDimension
  0
DIMENSION
  5
A3A
330
A02
100
AcDbEntity
  8
Dimension003
100
AcDbDimension
  2
*Dimension003
 10
358.074
 20
175.829
 30
0
 11
353.074
 21
175.829
 31
0
 70
32
  1
100
  3
STANDARD
100
AcDbAlignedDimension
 13
306.103
 23
218.885
 33
0
 14
306.103
 24
118.885
 34
0
 50
90
100
AcDbRotatedDimension
  0
DIMENSION
  5
A44
330
A02
100
AcDbEntity
  8
Dimension004
100
AcDbDimension
  2
*Dimension004
 10
324.347
 20
247.556
 30
0
 11
326.103
 21
252.238
 31
0
 70
32
  1
40
  3
STANDARD
100
AcDbAlignedDimension
 13
306.103
 23
218.885
 33
0
 14
346.103
 24
233.885
 34
0
100
AcDbRotatedDimension
  0
TEXT
  5
A4E
330
A02
100
AcDbEntity
  8
Annotation
100
AcDbText
 10
170.798
 20
200.416
 30
0
 40
5
  1
8 x ID6
  7
STANDARD
 72
1
 11
170.798
 21
200.416
 31
0
100
AcDbText
  0
DIMENSION
  5
A4F
330
A02
100
AcDbEntity
  8
Dimension005
100
AcDbDimension
  2
*Dimension005
 10
211.103
 20
247.238
 30
0
 11
211.103
 21
252.238
 31
0
 70
32
  1
190
  3
STANDARD
100
AcDbAlignedDimension
 13
116.103
 23
218.885
 33
0
 14
306.103
 24
218.885
 34
0
100
AcDbRotatedDimension
  0
DIMENSION
  5
A59
330
A02
100
AcDbEntity
  8
Dimension006
100
AcDbDimension
  2
*Dimension006
 10
71.6747
 20
234.067
 30
0
 11
75.2102
 21
230.532
 31
0
 70
32
  1
10
  3
STANDARD
100
AcDbAlignedDimension
 13
96.1027
 23
223.885
 33
0
 14
86.1027
 24
233.885
 34
0
 50
90
100
AcDbRotatedDimension
  0
DIMENSION
  5
A63
330
A02
100
AcDbEntity
  8
Dimension007
100
AcDbDimension
  2
*Dimension007
 10
78.5184
 20
113.973
 30
0
 11
74.9829
 21
110.437
 31
0
 70
32
  1
10
  3
STANDARD
100
AcDbAlignedDimension
 13
96.1027
 23
113.885
 33
0
 14
86.1027
 24
103.885
 34
0
 50
90
100
AcDbRotatedDimension
  0
DIMENSION
  5
A6D
330
A02
100
AcDbEntity
  8
Dimension008
100
AcDbDimension
  2
*Dimension008
 10
88.2485
 20
248.046
 30
0
 11
91.784
 21
244.51
 31
0
 70
32
  1
10
  3
STANDARD
100
AcDbAlignedDimension
 13
96.1027
 23
223.885
 33
0
 14
86.1027
 24
233.885
 34
0
100
AcDbRotatedDimension
  0
DIMENSION
  5
A77
330
A02
100
AcDbEntity
  8
Dimension009
100
AcDbDimension
  2
*Dimension009
 10
338.105
 20
240.514
 30
0
 11
341.64
 21
244.049
 31
0
 70
32
  1
10
  3
STANDARD
100
AcDbAlignedDimension
 13
336.103
 23
223.885
 33
0
 14
346.103
 24
233.885
 34
0
100
AcDbRotatedDimension
  0
ENDSEC
  0
SECTION
  2
OBJECTS
  0
DICTIONARY
  5
F000
330
0
100
AcDbDictionary
  3
ACAD_GROUP
350
F001
  0
DICTIONARY
  5
F001
330
F000
100
AcDbDictionary
  0
ENDSEC
  0
EOF